/* XPM */
static char *_8__1_1739827069[] = {
/* columns rows colors chars-per-pixel */
"64 64 193 2 ",
"   c black",
".  c #010000",
"X  c #010100",
"o  c #010101",
"O  c #020100",
"+  c #010200",
"@  c #000201",
"#  c #020200",
"$  c #020300",
"%  c #030301",
"&  c #000002",
"*  c #010103",
"=  c #020202",
"-  c gray1",
";  c #030400",
":  c #040500",
">  c #050601",
",  c #040402",
"<  c #050503",
"1  c #060702",
"2  c #020204",
"3  c #030305",
"4  c #040404",
"5  c gray2",
"6  c #060405",
"7  c #040605",
"8  c #060604",
"9  c #070705",
"0  c #040406",
"q  c #050507",
"w  c #060606",
"e  c #070707",
"r  c #070803",
"t  c #080904",
"y  c #090A05",
"u  c #080806",
"i  c #090907",
"p  c #0A0B06",
"a  c #0B0C06",
"s  c #0B0C07",
"d  c #0C0D07",
"f  c #060608",
"g  c #070709",
"h  c #070908",
"j  c gray3",
"k  c #090909",
"l  c #0A0A08",
"z  c #0B0B09",
"x  c #08080A",
"c  c #09090B",
"v  c gray4",
"b  c #0B0B0B",
"n  c #0C0D08",
"m  c #0D0E09",
"M  c #0E0F09",
"N  c #0C0C0A",
"B  c #0D0D0B",
"V  c #0E0F0A",
"C  c #0A0A0C",
"Z  c #0B0B0D",
"A  c #0C0C0C",
"S  c gray5",
"D  c #0E0E0C",
"F  c #0F0F0D",
"G  c #0C0C0E",
"H  c #0D0D0F",
"J  c #0E0E0E",
"K  c gray6",
"L  c #100E0F",
"P  c #0F100B",
"I  c #10110B",
"U  c #10110C",
"Y  c #11120D",
"T  c #10100E",
"R  c #11100E",
"E  c #11110F",
"W  c #12130E",
"Q  c #13140F",
"!  c #0E0E10",
"~  c #101010",
"^  c #111111",
"/  c #121210",
"(  c #131311",
")  c #111113",
"_  c gray7",
"`  c #131313",
"'  c #141510",
"]  c #151611",
"[  c #141412",
"{  c #151513",
"}  c #161712",
"|  c gray8",
" . c #151515",
".. c #161614",
"X. c #171715",
"o. c #161616",
"O. c gray9",
"+. c #181913",
"@. c #181914",
"#. c #191A15",
"$. c #181816",
"%. c #191917",
"&. c #1A1B16",
"*. c #1B1C16",
"=. c #1B1C17",
"-. c #181818",
";. c #191919",
":. c #1A1A18",
">. c #1B1B19",
",. c gray10",
"<. c #1B1B1B",
"1. c #1C1C1A",
"2. c #1D1D1B",
"3. c #1B1B1D",
"4. c #1A1E1F",
"5. c gray11",
"6. c #1D1D1D",
"7. c #1E1E1C",
"8. c #1F1F1D",
"9. c #1C1C1E",
"0. c #1E1E1E",
"q. c gray12",
"w. c #1F201B",
"e. c #20211C",
"r. c #21221D",
"t. c #20201E",
"y. c #21211F",
"u. c #22231E",
"i. c #202020",
"p. c gray13",
"a. c #222220",
"s. c #232321",
"d. c #202022",
"f. c #232323",
"g. c #242321",
"h. c #252621",
"j. c #242422",
"k. c gray14",
"l. c #252525",
"z. c #262624",
"x. c #242426",
"c. c gray15",
"v. c #272727",
"b. c #282924",
"n. c #282826",
"m. c gray16",
"M. c #2A2A28",
"N. c #2D2D2D",
"B. c #2F2F2D",
"V. c #2F2F2F",
"C. c #2F302B",
"Z. c #313131",
"A. c #323230",
"S. c #323232",
"D. c gray20",
"F. c #343432",
"G. c #343434",
"H. c #353535",
"J. c gray21",
"K. c gray22",
"L. c #393939",
"P. c #3A3A3A",
"I. c #3F3F3F",
"U. c gray25",
"Y. c #414143",
"T. c #434343",
"R. c #4B4B4B",
"E. c gray31",
"W. c #4A5050",
"Q. c #505050",
"!. c gray32",
"~. c #585856",
"^. c #535959",
"/. c #5A5A5A",
"(. c #5B5B5B",
"). c #5D5D5B",
"_. c #5D5D5D",
"`. c #5F6364",
"'. c #626260",
"]. c #6D6D6F",
"[. c #787A79",
"{. c #7C8584",
"}. c #929292",
"|. c #999B9A",
" X c #A2A2A2",
".X c gray",
"XX c #C7C8CA",
"oX c #C5CECD",
"OX c #C6D5DA",
"+X c gray87",
"@X c gray89",
"#X c #FEFFFF",
"$X c white",
/* pixels */
"# # x $.x x < # E.o.# C g x B q x [ B q o.u g # q B E # 2 u # 9 q E # # 2 # # # q u # 2 2 # # # C q ( # # # 2 2 # 2 # 2 x 2 q B ",
"# 2 < B q # # 2 # # 2 # # 3 # % q (.P.o.o.# 2 # # q # # # # h ;.q # # 2 # g C # # # 2 # # # 2 # # 2 J 2 # 2 # # # # # # q # q < ",
"J J # # 2 q # p.p.x # 2 # J p.# # N.D.J C B < # # q 2 q B # < x [ # E # 2 2 2 # ; # # < 2 < # ( p.q # x 2 # B # 2 # # 2 # # < *.",
"# q q # # J g 2 A j # 3 # |.#XD.J o.$.B q x # # q u u q u < B x # # # ) q # # # < J g u q q # x e.x # < # # # < # o.( # # B $.E ",
"# # # # # 2 # # x # # 2 # [.XX3.# x J J q # q # B u u +.# x x q B # C g x q # # # o.( # x # q # # # 2 # # # u x C ;.! # # q q # ",
"x g q # # # # # # 2 # # o.;.# < x ( J p.J # q 2 # u q < # B x # B J q # u B # # 2 # q q [ ! e.q C # # # # 0 x 2 q # # # # 2 q u ",
"x B < # # ) o.q x q M.g u x q q < ; u B o.< # # q q < q # q < # # J C # # # 2 q 2 # # J J u C C 9 # # q # C x # # J 2 # # B x q ",
"# B # # # g x u x # $.x # q.B $.q # q L u q x 2 ( # # q 2 # # # # # # I.( q ( # # # # # q # # 2 o.$.2 v.2 _.D.o.x J 2 # # x < # ",
"2 # E ) # # # # 2 u # # # x q E q # q C.[ q e.# # # < 2 B < # < q # # Q.J q < # 2 q ;.# # # 2 # E x # # B J g g # # # # # # J q ",
"2 # [ 2 ~.x.# # < x < x j # q q # 2 # q E q ;.( # # u g J q # u q q ; q ;.J # # ) 2 q.# # # # # # # q < # g # 2 2 2 C 2 2 # # # ",
"2 # # # ;.C # q # q x $.q.# q E # # J < < J B q # # # # [ # o.B q ;.# J ;.P # 4.E # q q q # # x q < 2 q # 2 # # # g ( # # # # # ",
"q # # 2 # x ;.B # j q % q # x # # u C J J < u # x C # 2 # p.[ q J # # q.C # W.OX{.u o.x L x # P # # # # x g # # # 2 # q # # q 2 ",
"q # u g ( E P x.M.J g # # # # 2 # q # # # x J ( 1.[ # # x $.x 2 q q < # 3 # `.#XoXF.J # # x # # g u < # < q # # # # # < # # # q ",
"< 2 ( J [ # # o.) # # # # # # # 2 # # q 2 # # x q q # # J 2 # # x E < < # j C ^.J.9 g # # # 9 1.x J q # 1.( # # # o.E x # q J < ",
"h.q E q C # # # x q 2 2 # # # 2 B ; # q # # # 2 q x # # # # # # $.q < x # x.# # # # # 2 # E u x # # # q q.;.C # 2 # q < # < D.q ",
"% x # # 2 # 2 # < q ! # # q # # g # P 2 # # # E < x # 2 # # # q E 1.u % g ;.# 2 q J # # # x u # # ; < x # ) ! # # # u [ # u B.J ",
"# q.q # # o.J # q u # K.'.# < q # # 2 2 # # 2 q 2 ! x # # g x # ;.( J # o.( # # # 2 # # # E x # q # E ( # 2 2 2 B # # q # 2 x o.",
"# # # # # 3.q # # E u T._.# q # ! x # # # # ( ;.# P C # # g J # x q # ) 2 3 h 9 2 # # u # 2 # # # q x q # # 2 < x # q # # # # u ",
"# J 2 x # # # # q q q # # q q B # # g ;.# # q.[ # q q J 2 q # # < < # 2 # q x 2 2 # # # # # # ! x q # # J # # 2 # 2 [ 2 # 2 # # ",
"# ! # 2 2 2 # 2 q # < u g # E u # # 2 ( # # q # q q ;.p.g ! # # # # # # # # # # # # q 2 # # # g u # # < J g J # # o.P # # # # 2 ",
"# # q z.# # # 2 [ x 9 # 1.x p.` # q # < # # # x $.# 1.b ;.) # # # # 2 # # # 2 # 2 ( x # # # 2 # q q.# J $.( ;.# 2 2 2 # # # # # ",
"# # q C 2 O.# # 2 # j < ` j.J z < # x 1.2 # # q < # # # J ;.( o.# # # # 2 # # # q E g # # # q 2 < ;.# $.J J ! # # # # 2 2 2 2 # ",
"# g ; # 2 ( # # % # # q < u C x E # B $.# # # q q # # q ( ( q < # x g 9 ( # # # # # q # # g P ( q # # x B x u # # 2 # # J 2 # # ",
"# 2 x x b # # # X.% q < # x u # # ( x B x q u x x # # x p.q q # # # x # 2 2 # # x # E q # o.# J q < < q J ( # # 2 # # 2 # # # 2 ",
"# g o.# x +.q q q [ u < # J $.# # 2 # C ( x # # C # # 2 u B x # g b.B # # x x # 9 u # # # # # ! q q e.x # J J # # ! q # # # # B ",
"# # # # # q x u < E B x # *.X.< # # x C x # # # # g 2 # q q # q q J # q # # q # x x # # 2 # ( # # < E J 2 # # # # ;.g # # x J # ",
"! # # 2 # # 2 # # g < # x x x 2 # # x B J # # # # # # z q # 2 # ; ; q q # 2 # # ;.;.2 ( # 2 C J q q q x # # z.! # 2 # # # g ( # ",
"g # 2 # B x # # # # # # # E J # C g # # # 2 # # # # # q 2 # # # x +.# # 9 2 # # # # # # K.P.J x # [ J # C g J q # g # # # # # # ",
"# # # # g u # 2 # # # # 2 ! q # x [ # J q q E J # # # x # # # # # # 2 # J B ; 3 # 2 # p.#X@Xo.# x # # # x q < # o.o.# # # 2 # # ",
"2 # # # # # # 2 # # q # x J < x q q J g q # x e.# x 2 # # x # P p.# q J E x # # # # # C  X}.# 2 q # # g # x B # o.2 # # # # q C ",
"2 # q B # # 2 # 2 x ;.# u x x Q # # # # # # # g # g # 2 # # # # q # # E q < q # q < # # # q # # # # # 2 # q B 2 # # q # # u # g ",
"g C 2 u # # # # # g J J 1.# x [ B # # # # # 2 x 2 # 2 # # < J # # # # x # q E # # g # # q x q # 2 # # J q # q 2 2 ; ! # # # # # ",
"o.g 2 2 2 # # 2 # J J C q # x g # # # 2 < # # J J # < q # # q q # # # g # # x q # 2 # # 2 # x # # # # 2 # 2 2 # 2 q # # # # # # ",
"J # # g B # 2 # ) M.! # # E q.# 2 # # g x x q x q B E q # < < q # # # # g g q ( # 2 # # # # ;.g # # u g 2 # # # u u # # # # # # ",
"# # # # # # # # 2 ( C # # # ;.2 # 2 # # # # J z u $.2 # ( q.# h.2 q # # B B q E 2 # # # 2 # 2 J # # ;.< # # x # < # # # # # # 2 ",
"# # # # x # # 2 C # # # 2 # 2 # # # # # # # # # u # 2 # # # # J x J # # # J D.[ # # # # # # 2 ( q # q x # # u q E # # # # # # # ",
"# # # # 2 ( 2 # q # x q # u # # # 2 u # < # < ; ; < J < # q # # 2 # # # # q J x g q.g # # # # q # # < < < < # 2 x # # # # 2 # # ",
"2 # 2 # # g q # # # q # # 2 # 2 # 2 x # x q.[ # q.x # # B [ # J 2 # 2 u q # # x # Y.3.o.( ( # # # q q # # # # # # 2 # # # # C 2 ",
"# # 2 q # # < 2 # B x # # # # x C # P q 2 x x ( # # g q q q # 2 # q.J # # 2 # x 2 # 2 ) J $.9 # # # 2 # # # # u # q x # # # ;.;.",
"# # x # # 2 # # # x x # # # # 2 g # # # # # J ) # 2 # # p.;.# # z.( x # # # # # # # 2 # # # h.q # # # g q # # 2 # # # # 2 ( B q ",
"# ! $.# # # # 2 # # # # # # # # q ;.q # # # # g x # J..XJ.# # # J 2 E q # # 2 # # # # ! x # q q # # # x J 2 # # J # # # q q # # ",
"x q < q # # # # t u # # # # # 2 # o.g 2 # # # q x # N.+XK.# g ( # 2 # # # # # q # # x o.u # < [ C # 2 # # # # ;.w.# u q # # J 2 ",
"q o.q q # # q # q u # # # # # # # # # # # # # J 2 x # # # # # x # # # # # # # $.x # h.o.q I J J 9 # # # # # 2 ) 2 # q # # 2 q # ",
"u E # # # # x g # # q < 2 # # # # # 2 # # # # < J # 2 2 # D.z.# # 2 # # # # # 2 u B q E u x # ;.;.# ! g # # # # 2 ( # # 2 # # # ",
"q.;.# # # # 2 # 2 # q u E 2 2 # # # # # # # # # C q # 2 # R.Q.# ! # # q < # 2 # # J C # C g # C x # J x < # # # # J ( # # # 2 2 ",
"q # q J 2 # 2 # # # 2 [ ( # ( 2 # # 2 # # x q # # # # 2 2 # 2 x ( 3.q 2 < # # # # # # # # q J ( ( # x z q 2 2 # # q ;.q # # # # ",
"p.q # # # J 2 # # # # q x < C # # # # x q.# q J # # q e.J J # 2 # B # # # # 2 # # # # # # [ q.( x # # # # # # # q < # g # # # # ",
"J B # T.) x 2 # # # # # # [ C # # # q < q # # u # # # ;.# q # # J x # # # # # # 2 # 2 2 # x E # B x # # # # # # E J # # # # # # ",
"B # # x.;.# # # 2 ( # # # 3.q # # 2 2 # # 2 # C B < # # b q q # 9 9 # B # # ( 1.;.# J x # # # J u ; # x # # 2 # x x # # # r # # ",
"u # # # u # # # 2 1.q # # # # # # # # 2 u x # # q q 2 # 2 # < # z x # 2 2 # J J x o.2 2 # # # u # # < x # # # # # < # x q u # # ",
"# # # 2 q # # # # 9 ; 2 ( # # q o.# J 2 q u < q z.# # 2 # # # # # # 2 # # # 2 J q ( 2 # # 2 # # 2 # < # # o.# # # J q # u x # 2 ",
"D.x # J g # # B q x # # # 2 # # 2 C J 2 E u # # # $.x q B x # # # # # # 2 # 2 # # # # # # # ; E # 2 # # 2 # 2 2 x # # # B # # # ",
"J.# # x q # # # 2 # q < x # # # # g 2 # q 2 # # # ( g # # 2 2 2 2 q q # E B # # q E # # # # 0 u z.g # # # # # h B # # # # # # J ",
"# # # # # 2 # q q q.$.q Q # # # # # # # # # # 2 # # 2 # # # # g J # q # x ( o.x # q # # # C 2 g J # # # # q # # # # q # # 3 ~ u ",
"x # # # u # g ( q E q # # u q # # # # # q x # # 2 # # # # # # # # # # < < # x ;.# q # q 2 ( # o.o.# # # # # 2 # # # u # q < 2 h ",
"< # b u # 2 g # # # # # B q C q # q q # < u # q J x # # # 2 2 # # # # # J [ # u 2 # # q # # # # x E 2 # # # # # # # x % # # q q ",
") # E q # # 2 # # q J # o.q.x q q < q < # B 2 # < # ; < # x < # # # # # x g q x # # # # # # # 2 # x 3 # 2 # # 2 2 # g o.g # # x ",
"J q # # x ( # # # # 2 2 x x u q # J B o.# # 2 # # q x x # # # ; # # # # # J B q < u x # 2 C 2 # # # 2 q B # 2 J 2 # # 2 # # # # ",
"( x q # 2 q # # ; 2 # # 2 J B B # x J # # # # # # 2 2 # # # q ( # # # # u < # # q e.# q b J # # < 2 q # # # # 2 # # # # # # 2 # ",
"q # # q # # q # # # # # < # # # # q q # q # # g ;.# # # 2 # 2 # 2 # # 2 < q # u C # # ! ( # # x.[ # # 2 # # 2 # 2 # # # # J ) # ",
"o.z.].# 2 # ( g # # # 2 # p.o.# q *.# # J 2 # # ;.g # < # u x # # # # # # # # 2 2 2 # # # # # C # # 2 g x ( P q # # # # # q x # ",
"# N.(.q # 2 # # # B # # # ( 2 # # q B # # # ; < # 2 z 9 # J [ u 2 ) g # # # # g q.# # # # # # # # # 2 # J q.# # # # # q q # # # ",
"J # # ( # # 2 # 2 x ( h # # < P # 2 J # # # x B # # B q # # # ( x e.x # # 2 # x 2 # # # # # # # # # # 2 # # # x q # # # 2 # # # ",
"x u g x x x 2 # # # z E 2 # q J # x 2 # P o.# # 2 u # u 2 # 2 # q # # # q # # # # 2 # # # 2 # 2 # # # # B 2 # u 2 # 2 # # # # # "
};
