/* XPM */
static char *WW__1_1739870156[] = {
/* columns rows colors chars-per-pixel */
"64 64 256 2 ",
"   c #16000D",
".  c #1B0417",
"X  c #0B0107",
"o  c #24051C",
"O  c #28071C",
"+  c #27131E",
"@  c #2B0423",
"#  c #2C0B23",
"$  c #2D0829",
"%  c #34052A",
"&  c #39052D",
"*  c #340B2B",
"=  c #350A28",
"-  c #2B1225",
";  c #36132B",
":  c #3C0534",
">  c #3C0B33",
",  c #390835",
"<  c #3B1434",
"1  c #3B2534",
"2  c #1F0020",
"3  c #420B35",
"4  c #44053B",
"5  c #4A043C",
"6  c #450B3C",
"7  c #490B3D",
"8  c #440535",
"9  c #43123B",
"0  c #46153A",
"q  c #4E0C3B",
"w  c #49273D",
"e  c #4C0543",
"r  c #4C0B43",
"t  c #4C0C4A",
"y  c #490845",
"u  c #530B45",
"i  c #54044B",
"p  c #540C4B",
"a  c #5B0C4C",
"s  c #570647",
"d  c #4C1344",
"f  c #4A1845",
"g  c #54134B",
"h  c #5A134D",
"j  c #551848",
"k  c #5C0B54",
"l  c #5D0B5B",
"z  c #580855",
"x  c #5C1354",
"c  c #591655",
"v  c #4F0751",
"b  c #62094D",
"n  c #630C54",
"m  c #62055C",
"M  c #630C5B",
"N  c #690859",
"B  c #631454",
"V  c #64145C",
"C  c #6A135D",
"Z  c #661B59",
"A  c #6D1157",
"S  c #4A2544",
"D  c #542448",
"F  c #562D51",
"G  c #69275B",
"H  c #5E0C61",
"J  c #6B0B64",
"K  c #6C0C6B",
"L  c #680765",
"P  c #730C64",
"I  c #730C6B",
"U  c #780869",
"Y  c #6B1363",
"T  c #6A1767",
"R  c #731C65",
"E  c #74136B",
"W  c #791769",
"Q  c #6A0B73",
"!  c #730A72",
"~  c #7B0B74",
"^  c #7C0C7C",
"/  c #770777",
"(  c #741373",
")  c #7A1677",
"_  c #6D1574",
"`  c #6B2665",
"'  c #762669",
"]  c #7A2775",
"[  c #76356E",
"{  c #714A6B",
"}  c #61445D",
"|  c #840A6B",
" . c #83156C",
".. c #860A7A",
"X. c #831B7C",
"o. c #871677",
"O. c #96177B",
"+. c #980D74",
"@. c #AD1475",
"#. c #85267A",
"$. c #93247B",
"%. c #85377B",
"&. c #8A2F75",
"*. c #B22279",
"=. c #C5247A",
"-. c #CA1C7D",
";. c #85477A",
":. c #7C0984",
">. c #7B1586",
",. c #750A8A",
"<. c #7C2A85",
"1. c #840C83",
"2. c #880988",
"3. c #940B89",
"4. c #8B1485",
"5. c #881788",
"6. c #961789",
"7. c #8A0B95",
"8. c #940C94",
"9. c #980B9A",
"0. c #8B1595",
"q. c #981796",
"w. c #A61789",
"e. c #A4149B",
"r. c #A51796",
"t. c #B7189A",
"y. c #AC0F8F",
"u. c #882784",
"i. c #952688",
"p. c #893785",
"a. c #963288",
"s. c #8A2496",
"d. c #992997",
"f. c #983896",
"g. c #A6268A",
"h. c #B92688",
"j. c #A72797",
"k. c #B62999",
"l. c #A63597",
"z. c #B8359A",
"x. c #990BA6",
"c. c #9A16A9",
"v. c #9510B0",
"b. c #A70BA8",
"n. c #A314A3",
"m. c #A51CA4",
"M. c #A818A8",
"N. c #B619A7",
"B. c #A90AB6",
"V. c #B50CB8",
"C. c #AC1BB4",
"Z. c #A916B8",
"A. c #B519BA",
"S. c #B008AC",
"D. c #9826A5",
"F. c #A726A6",
"G. c #B829A7",
"H. c #A937A6",
"J. c #B736A8",
"K. c #AB27B7",
"L. c #B726B8",
"P. c #AC37B7",
"I. c #B835B9",
"U. c #C91E91",
"Y. c #CA2889",
"T. c #C4259C",
"R. c #C7339A",
"E. c #D83393",
"W. c #C51AB9",
"Q. c #C31AA8",
"!. c #C627A7",
"~. c #D436A7",
"^. c #C727B7",
"/. c #C738B7",
"(. c #CE33AC",
"). c #924C8D",
"_. c #A5449A",
"`. c #AF4E9B",
"'. c #B847AA",
"]. c #B555AC",
"[. c #B947B7",
"{. c #B956B7",
"}. c #AB4EAB",
"|. c #B969B8",
" X c #AE66AB",
".X c #9E4CA0",
"XX c #D64398",
"oX c #C745AA",
"OX c #C747B7",
"+X c #D548B6",
"@X c #C858B7",
"#X c #D955BD",
"$X c #D44EAB",
"%X c #E057B6",
"&X c #C868BB",
"*X c #E165B5",
"=X c #A90BC8",
"-X c #B60BC6",
";X c #AA15C3",
":X c #B718C5",
">X c #B816D6",
",X c #B30DD5",
"<X c #BA25C6",
"1X c #B927D6",
"2X c #B331CA",
"3X c #B916E5",
"4X c #AF23D4",
"5X c #C418C9",
"6X c #C719D6",
"7X c #C60ED6",
"8X c #C728C9",
"9X c #C637C8",
"0X c #D437C6",
"qX c #C826D7",
"wX c #C837D7",
"eX c #D52AD1",
"rX c #C519E8",
"tX c #CA17F1",
"yX c #C927E7",
"uX c #CC35E6",
"iX c #C925F6",
"pX c #D333ED",
"aX c #BD48C9",
"sX c #BC55C2",
"dX c #BB65C8",
"fX c #CA46C5",
"gX c #D449C8",
"hX c #C857C6",
"jX c #D757C6",
"kX c #C94AD6",
"lX c #CA5AD3",
"zX c #D857D5",
"xX c #D549D5",
"cX c #E35ECF",
"vX c #C768C7",
"bX c #D766C9",
"nX c #D968D6",
"mX c #DA77D6",
"MX c #CB70D2",
"NX c #E577D8",
"BX c #E46FCA",
"VX c #D547E5",
"CX c #D34EEB",
"ZX c #E358E6",
"AX c #D770E7",
"SX c #E479E6",
"DX c #E273F6",
"FX c #D787D8",
"GX c #E584DB",
"HX c #D987E6",
"JX c #D997E5",
"KX c #E58AE6",
"LX c #E997E7",
"PX c #E98BF4",
"IX c #ED93EF",
"UX c #EEA8F9",
/* pixels */
"-.@.=.=.Y.y.w.h.j.mXbXh.y.R.+X#X[.$X+X(.6.w.U.T.G.(.!.t.j.z.Q.w.&XJXo.N./.{.B o.^.zXF.y.2.o.8XN.N N | 9.S.W.W.S.9.3.3.n.C.I.:XA.",
"Y.=.*.=.E.T.t.T.k.@XKX@X@.U.(./.jXoX+X(.k.+.T.t.r.z.U.S.$.g.t.y.&XLX| N.0Xl.u ..^.xXq.e.~ 6.L...i P | 2.S.5XW.9.3.4.m.C.^.>XA.M.",
"XX-.=.=.R.~.T.t.+XOXSXGXh.h.k.J.nXlXOXz.!.+.y.t.w.j.k.t.O.o.y.y.|.JX .N.^.] e o.0X/.6.m.~ d.e.a b W I 3.W.5Xb.9.y.M.C.<X<XA.n.S.",
"XXXXY.*.R.~.$Xt.!.zXbXPXbXg.!.k.{.KXhXh.t.w.+.k.g.j.k.S.r.O.y.y.@XJX .t.G.A 5 6.0XG.N.K.) q.4.i o.X.U S.5XA.b.b.b.A.:X8XA.b.S.8X",
"XXXXXXE.=.$XjX$Xw.+XNXnXPXOXk./.l.JXKX'.w.y.+.g.J.G.J.y.F.g.w.+.@XFXO.r.r.p a r.0Xj.8XH.( r.I ] H.#.2.5X8Xb.S.Z.A.:X<XC.e.r.F.X.",
"*X$XXXE.Y.Y.BXBXoXO.jXnXbXNXOXgX!.{.UXlXg.3.+.$.fXOXOXg.N.I.i.| }.&X4.e.j.a P e./.j.xXs.1.e.T [.sX#.W.qXZ.S.M.8X8XL.M.e.9.6.J U ",
"nXBX$XXXE.Y.oXGXGX_.O.BX@X@XbXjX#Xj.JXSX!.w.+.O.[.xXjXl.r.fXl.N ).].r.M.6.s o.N.G.I.xXX.e.3._.PX{.m.qX5XS.A.<X:XM.m.n.8.E k ..8.",
"~.mXGX$XE.Y.@.oXLXmXi.g.jXj.oXNXmXz.{.PX0Xt. .$.H.gXxX'.g.xX[.k ).{.N.L.6.n o.N.m.VXaX4.N.H.JXIXH.8X6XA.L.<XL.q.q.n.o.B m 3.8.n.",
"k.(.mXGX%XXX*.@.oXLX&XO.k.z.O.].LX%X*.MXgXQ. .X.j./.xX[.j.9XfXk ).vXN.L.6.J X.y.A.ZXH.e.<XlXUXMXL.qXqX1X2XL.6.6.r.4.E J 3.3.n.>X",
"~.~.R.bXGX%XE.h.+.oXNX`.$.z.$.R FXIXz.z.xXW.4. .O.j.gXfXJ.L.OXA ).SXr.A.y.Y o.e.9XxXF.8XkXAXUXP.5X8XVXVX9XD.i.q.q.5.) 3...c.:XuX",
"jX+X+X~.oXbX#X(.h.w.oXbXz.Y.T.o.[ LXBXg./.^.6.O.o.E [.gXgXW./.R `.mXX.N.3.h  .e.0X9XA.wXwXIXvXS.qXuXCXaXaXP.d.m.K.q.| 1.e.A.qXqX",
"NXNXbX%XoXz.].+X(.J.k.oX$XR.T.h.P ).LXOXl.Q.w.O.w.i u.bXzX^.I.u. XvXR w.| 5 o.^.wXL.A.L.lXAX9.A.9XVXCXCXzXP.L.L.e.| 5.L.8XuXyXuX",
"*XGXLXGX*X$Xg.g.z.OXgXOX'.$X~.T.O.N  XGXhX!.6.O.t.N g MXSX^./.'.{._.'  .u 7 6.wXwXF.M.K.gXf...n.P.2XDXDXkX2XL.L.4.D.wXuXuXqXuX<X",
"*X*XGXLXGX*X+XR.i.$.OXNX&X`.~.!.k.O.W |.KXbXO...N.w.:  XUXH.L.zX}.[ &.Z q N K.pXL.6.m.J.f.k I D.P.nXDXlXhXM.:Xe.P.CXDXVX<XwX:XV.",
"R.$X*X*XNXNXcX+X~.O.C  XIX$X_.(.^.G.r.6.FXLX'...y.N.P %.UX_.r.AX).B a.W b ~ A.<X6.r.L.P.Z z q.F.aXDXAXMXc.A.I.2XCXDX/.M.A.:XV.V.",
"h.g.$X#X#XbX#X+X~.!.*.q ).IXz.k.^.^.W.G.l.KXmXl.w.M.r.f.JX{.3.nX XR l. .A ..F.i.q.9XwXd.M 4.A.P.AXHXMXc.A.H.P.ZXAXF.M.5XV.V.B.V.",
"g.w.6./.cX+XOX'.J.!.!.O.5 ;.*Xi.w.^.N.W.W./.nXfXF.G.e.[.KX@X ._.|._.l. .C _ }.d.<XpX2XH.0.m.D.MXUXMXs.L.P.d.2XaXq.b.:XV.Z.Z.B.Z.",
"h.h.h.3.z.BXcXOXoXG.G.j.i.V [ _.P O.O.| r.^.L.OX^.9X8._.UX].C ] |.MXj.X.Z <.MXI.qXqXxX2XF.d.dXUXFXF.L.K._ 5.d.d.m.C.Z.Z.C.;X>X>X",
"(.E.U.Y.@.@.@XBXgX+XJ.j.r.l._._.l. . .b 8 o.0XN.j.I.F.[ UX}.h u.|.JXG.X.b |.PXP.Z.1XVXkXdXaXHXPX9XL.d.m C j.L.A.A.qXqX1XiXiX2X>.",
"y.k.~.E.U.@.| a.$XgXgXJ.j.g._.bXhXOX`.G q 3 X.J. .j.F. .vX|.a G.MXHXd.P G JXHX5.q.wXCXPXMX[.AX2Xe.4.( 4.L.8XqX1XpXpXyXpX1Xs.H L ",
"S.@.|  .Y.h.@.b b  .&.*.j.j.J.hXKXNXcX+X&.q q D h  .6. .u._.u G.{. X~ N ] UXsX/ L.CXPXHXa.f.) 2.r.F.<XqXeXqXyXpX2X;X2Xs._ :.B.>X",
"Q.T.t.+.P  . .$.P q h B W i.j.fXnXmXjXjXoXA B B 7 a #.R B ).` #.] p.q B ] dXK 0.uXCX{.p.) E u.sXaXuXyXqX<X;Xs.l x l Q 2.B.7XtXCX",
"k.h.y.y.+.P A  .i.i. .W  .$.J.fXxXnX'.j.l.l.&.i.' g D ' Y vX X0 { H.k ) ] T ) D.P.d.d.d.>._.AXlXaXK.c.c.^ r @ e Q >.q.b.A.1X2XD.",
"hX[.`.$.w.w.+.$.a.J.L.k.j.j.r.gXKXSXbXH.r.6.}.vX'.' h ' W JXJXw ).9X#.u.f.l.l.T l d.P.5.d.nXHXMXf.7.b.5.z M 0.;XZ.q.0.0._ d 7 8 ",
"SXIXLXFX@XG.t.N.G.fXnXcXOX+X/.j.J.lXhX'.u.#.#.}.nX}.A p 5.f.|.{ ` ) x d.VXZX[.Y G ` L 0.lXIXmXu.J E M v 1.>XrX>X-X;X8.M r 7 r l ",
"/.gXmXPXIXnX0XQ.Q.y.J.mXLXGXBXzXOX'.H.i.U > G l.hXDX[.4 R ].sXf.f D G s.wXhXd.] ` x p.}.dX.X) y $ O > Y d.D.0.0.1.K V A P 1.c.,X",
"g.k.^./.0XgXgX^.Q.t.+.W p.&XmXbX'.].nXzXH.E r d.9X[.sX] z {.AXH.p.).` <.P.a.d.H.F.H.l.` > @ @ o # ; < 9 6 < 3 g x V W 1.q.Z.>XyX",
"i.z./.0X0X^.Q.N.r.4.o.W s 8 c &.a.a.].NXzXO.> % B ) f.$.z d t 9 F [ ).H.kXP.'.a.L.wX2X#.0 > x R Z Z g , , r a C ~ ( W P K >.c.2X",
"o.1.3.q.r.r.6.o.o.R A Z j d : u o...N ' a.a.V $ - j ' u.h   o - { }.}.).` %.H.[.P.s.s.] H ] 6.0.u.] T c 0 3 u k V k x z Q 0.Z.A.",
"N.M.e.3.3...U b e 3 0 c Z B B ` u.l.4.P 6.r.X.x < # F ] G S { F ).dXFX{.u.S f.kXG $ 0 g ) q.D.2XI.D.) x x c V V V ! 0.Z.;XA.M.2.",
"W.^.W.N.N.t.S.y.U i r h Y R A V #._.[.I.L...h ' g % [ aX%..X X X{ S 1 - f ` fXP.f o . 6 Y T c t , $ p / 5.>.0.d.Z.>X7X>X-Xv.5.^ ",
"R.z.!./.^.eXW.Q.w. .C ' #.O.6.w.3.~ Y a.9X9XR G ] n j [ [ j F [ S } } - D ] T F     o * , O   X 2 t s.1XiXiXuX1X2X<X:X:XV.B.B.B.",
"&.$.i.h.t.G.l.h.z._.].&X&X@X[.J.i.Z 0 F f.'.).{ a.a.S X X 1 1 - 1 } { } F w X + > ; . . . # $ * > > 6 T <.s.<.] u.q.c.B.-X;X;X;X",
" .| U U N i e u ` ).@XmXmXNX{.%.c 0 6 6 0 ; ; T v.5.< @ D } w - 1 w S [ ).1 $ F u.R c 6 r h g r 7 d 9 ; # ; j L 2.v.=X=X;X;Xc.:.",
" .+.| A P W a.}.hXlXkXI.i.Y a A  .~ L M >   . Z L.i.D { ).a.< S + - + - f y f < T K.P.[._.] c 6 4 i x g , , z / x.B.=X=XB.c.q.5.",
"U U | A  .#.i.l.I.I.J.g.#.) o.o...o.E l > , x E o.M @ F D ' f.%.).} + . Z ] H.p.z T l c ' Y x n n m L K c y y l :.x.B.,X3X3X=XB.",
"O.| P n u u b P P N b p B W | b 9 # # j ' #.6.X.M d D *   S { ;.{ 0 0 ; 0 < _ H.[ O       , l 1.q.0.0.7.1._ h g J 5.x.Z.>XrXiXiX",
"N N b b k a B b q 5 & @ @ $ $ # + # 3 j R a r S D g F S ; ; > w + w ` 3 D # < - * 0 * 3 < 9 ! 9.;XkXCXkXP.5.I k z J 1.b.S.V.Z.4X",
"U P b s b A | w.w.O.A q > & * 0 3 8 # 3 $ @ . X o $ . < S # O   + - w ; D < f < * f j f 3 6 ..B.b.C.wXpXyX<Xc.0.K i e e N P K L ",
"..| W 6.!.^.eX^.!.o.b s u V R E b j 0 = # . . . < D < T g 9 G ; - # w < 0 # < - * * 0 > 3 8 i 1.q.q.9.x.Z.:X;X;XA.q.T 7 % & 5 8 ",
"+.i.j.G.!.t.o.n 8 : s U 4.q.e.1.W C g 3 6 8 & g ` n Y 6.E ' D > < o > V d # ; # ; ; o 6 7 = @ * d c V M L / 7.8.0.5.>.E M k J J ",
"g.6.+.| b 8 % & B a.P.I.L.V.q.! C B d j Z n 1.q.C 7 G j.] j % x ` > 6 F.0.6 # # * $ ; 3 Z Z > @ % * * e p k p u y 7 y t M Q :.9.",
"6.| P b b B R d.kXZXZXJ.6...M R R l R T B J M.F.E ' G ` f # j T ` j a F.<XT $ ; < $ # * > g c r s Q Q 4 : y u r > > y y l ,.x.B.",
"U | | | A o.G.ZXzX[.X.k 5 j G Z X.r.>.V x 5.qXM.5.[ < < o # < f c ( 5.M u.) t $ < $ < v t 6 0 h s ..-XZ.l % @ $ * > : z L :.v.,X",
"+.| A A o.G.F.#.P i e e a G ' 5.F.X.x Z E K.F.5.' > 6 * o > > q R 8.i.6 f R z 9 ; , 3 T ^ K p h g y / V.M.V $ O O # = % 5 z L 2.",
"k 7 a Y P p 5 i ! 4.9.b.F.D.6.4.M 0 D Z W E ' j 8 d j $ p M y J 4.6.` 0 % c M u V K M r 6.5.x r 7 6 r x _ V u $ O $ > > 8 7 s k ",
"* > 5 3 , k 4.G.eXqX5XyXwXC.1.M 7 j ' Y J E f > h B g v ^ W i 5.X.T g f 3 q I z E c.8.x K C.( g e 4 l Q >.T 6 = % = 6 y 4 y 4 e ",
"4 a a C r.W.wXuXqXqXVXCXI.( a b G  .6.8.n.E f R T g ( ! ^ ) e <.Z 3 e / z u 2.) T K.C.5.Y b.>X/ n N m 7.=X>X0.u & , & r k z L l ",
"q.w.n.W.6X0X<XL.K.9XkXd.V n I X.5.6.m.V.A.o.>.K.T H x.) 2.4.t Z 9 O i x.2.p n.B.^ M.K.s.T E >X6X/ K x K x.>XiX1X( e 5 e i m / 8.",
"M.e.V.5XL.j.X.E s.a.T k I 4.6.) W q.K.5XK.5.uX2Xf v.;X( 9.q.t r , % e b.x.t q.7Xx.q.0.<.Z g :.>XZ.! K r t Q c.iXiXv.K l k N / 2.",
"K O.N.M.X.i : r a s n ..q.4.Y r Y #.A.qXs.<XpX<.z ;Xc.7.x.5.y m r = & ~ 9.y ( -X-X8.1.V V g i / s.5./ l t y , _ 4X>X0.,.U L ! 2.",
") q.4.x : @ % 5 i U 3.3.) p & 0 Y i.A.;XK.pX2X, ( q.8.B.>.T y 2.L # $ k / y l b.-X8.( M B x x i Y R ( ^ T _ t 2 y 5.0.>./ L m U ",
"..V 4 , % 8 k M U 3.4.Y 5 % & g ..M.-X>X2XK.v % V T 7.=Xm j e 9.L # @ u / K k 1.=Xx.( / T V Y k r c k 1.1.,.;XH $ y Q ,.H H l i ",
": % & 4 N / P U 8.5.x 3 = = p | 9.Z.>X>X1.T * * > d 7.9.5 0 4 9.L @ @ l 5.7.I ~ b.0.T 7.x.1.^ M u 7 h m x.9.=X3X>.< H v.7.,.z e ",
"; 3 s U 3...U 8.4.u 3 > ; u ! 8.c.A.6X0.h 9 * @ $ t / T & 3 8 9.K & . z 1.q...^ 7.5.z >.,X=Xv.^ e 7 7 h L b.x.,XiX,.t <.,X,Xv.Q ",
"5 N 2.3.1...b.q.s & & < 7 P 1.~ d.<X;XL d 3 @ o 5 m H r * 3 7 x./ 3 . r ( 5.( ^ 2._ c p >XtX>Xc.M 5 d r z ! 2.x.3XiX,.v K.tXtX3X",
"| 2.2.3.b.>Xm.r , > 8 d P ..J ' j.<X1.L g , @ @ ! ^ u 8 : : e b.2.e @ % c Y c K 1.J u > 0.rXtX4X5.t d p u i l U ,.3X3X_ t ;XiX3X",
"..U 3.V.6XK.p > e r u T 8.U b d.<XF.z L 7 t @ e B.1.7 5 > 3 l x.2.p , @ 6 g 7 t ~ J 7 * g C.3X>Xv.E 6 n m e z b H ,.v.v.v t v.1X",
"P 8.5XyXC.u q s a p J e.3.a ) :X2XL l a Q ( $ Q -X:.7 e r i I x.>.i z $ $ d 3 7 M M 4 $ , ( x.;Xv.c.V p / L v s p H Q >.Q 4 t >.",
"Z.7X6Xc.p k N N I U 9.B.U N m.6X1.4 n n Z.) , x.7X:.7 a r m 7.8.E k ..y O > y 7 p M i : = r T :.x.7.x.z Q 1.L i n l L L c v y z ",
"6X5X9.b I 1.......b.V.8.n ..5Xn.8 p a c.yXh 7 B.,XK 7 p r ! v.1.T i 8.l @ y y u i l m e : y z m >.7.=X7.i L 7.Q z m ! ^ L p r y ",
"V.e.m 4.M.9.9.x.S.V.c.U P 9.V.m 8 a V yX<X* k B.-Xz 0 p 7 1.-XE h 5 9.I & i 9 Q L i Q U H H L z J ^ v.,XQ i U 9.1.i m 2.2.m r e ",
"8.I d.qXS.V.S.S.S.S.1.a U x.! 8 g 0 c.pX) $ J B.v.> < r e 8.Z.J r 4 8./ e I 3 ( 7.L ,.7.,.7.,./ L ! 2.=Xv.m i L b.2.e l 2.3.m i ",
"! d.uX-X5XA.V.-XC.5.i m ....e 6 u x 1X1Xy 4 ~ B.^ * > 4 z v.Z.t 6 : 7.:.l 2.e ( =X,./ =X=X=X=Xx.:.:.:.v.=X2.! e L =X2.4 k 2.U k "
};
