/* XPM */
static char *coll_removebg_preview__1_1740045828[] = {
/* columns rows colors chars-per-pixel */
"64 64 255 2 ",
"   c #030303",
".  c #070807",
"X  c #080907",
"o  c #070908",
"O  c #0B0B0A",
"+  c #100F0F",
"@  c #0C120C",
"#  c #0A190D",
"$  c #11120F",
"%  c #121B0D",
"&  c #0C1613",
"*  c #0C1C14",
"=  c #131313",
"-  c #141A14",
";  c #191A15",
":  c #141C1A",
">  c #1B1B1B",
",  c #0D2B0D",
"<  c #0A2817",
"1  c #192617",
"2  c #132C1C",
"3  c #083717",
"4  c #04341A",
"5  c #043A1C",
"6  c #1B321C",
"7  c #17381A",
"8  c #23281A",
"9  c #26351B",
"0  c #0E2822",
"q  c #172824",
"w  c #073A24",
"e  c #183628",
"r  c #1B3B33",
"t  c #222423",
"y  c #262D23",
"u  c #2B2B2B",
"i  c #253726",
"p  c #343B25",
"a  c #273B37",
"s  c #383939",
"d  c #08470C",
"f  c #0A530C",
"g  c #074719",
"h  c #16471B",
"j  c #0A5919",
"k  c #16581A",
"l  c #26461C",
"z  c #334F1F",
"x  c #28551B",
"c  c #0B6C0F",
"v  c #09681A",
"b  c #087715",
"n  c #137819",
"m  c #2E661D",
"M  c #094726",
"N  c #194828",
"B  c #095A25",
"V  c #125923",
"C  c #0A4836",
"Z  c #184837",
"A  c #085636",
"S  c #19573A",
"D  c #274528",
"F  c #374729",
"G  c #275727",
"H  c #375927",
"J  c #2A4535",
"K  c #374936",
"L  c #2A5638",
"P  c #375836",
"I  c #076929",
"U  c #196825",
"Y  c #087228",
"T  c #066C34",
"R  c #1B6937",
"E  c #067737",
"W  c #1C7A30",
"Q  c #2C6729",
"!  c #366628",
"~  c #287928",
"^  c #397528",
"/  c #26653A",
"(  c #366736",
")  c #26763A",
"_  c #397636",
"`  c #47522D",
"'  c #464B37",
"]  c #455632",
"[  c #46662C",
"{  c #43762C",
"}  c #536D31",
"|  c #566639",
" . c #447936",
".. c #567636",
"X. c #677E3F",
"o. c #144F46",
"O. c #145748",
"+. c #274845",
"@. c #2E534D",
"#. c #147246",
"$. c #2A6943",
"%. c #376846",
"&. c #2D754C",
"*. c #316C65",
"=. c #4C4E4C",
"-. c #4D6B4B",
";. c #587846",
":. c #69734C",
">. c #51726D",
",. c #70786F",
"<. c #0B8915",
"1. c #0E8F15",
"2. c #179C1A",
"3. c #2B9C19",
"4. c #0AA418",
"5. c #15AF16",
"6. c #088929",
"7. c #13912F",
"8. c #068A39",
"9. c #029A3F",
"0. c #2F8E30",
"q. c #2A9539",
"w. c #0EB32B",
"e. c #2FAD36",
"r. c #47852B",
"t. c #51922E",
"y. c #4C8436",
"u. c #568935",
"i. c #5B9435",
"p. c #6A8C36",
"a. c #659C39",
"s. c #4FA63B",
"d. c #6AA337",
"f. c #76A83B",
"g. c #7CB63D",
"h. c #14D411",
"j. c #3ED80D",
"k. c #12F012",
"l. c #35EF14",
"z. c #0ED535",
"x. c #38D226",
"c. c #11F42A",
"v. c #34E92B",
"b. c #56D418",
"n. c #4EE50D",
"m. c #70E914",
"M. c #50D526",
"N. c #65D92C",
"B. c #138E49",
"V. c #199648",
"C. c #238A4B",
"Z. c #33954B",
"A. c #07AA45",
"S. c #13AF4A",
"D. c #1BAA54",
"F. c #30AE53",
"G. c #358B70",
"H. c #1FA966",
"J. c #4D874E",
"K. c #5B9447",
"L. c #6E944D",
"P. c #4EB057",
"I. c #79A749",
"U. c #78B345",
"Y. c #6DAB50",
"T. c #598D6D",
"R. c #6A906F",
"E. c #58B166",
"W. c #71B669",
"Q. c #17CE54",
"!. c #26C656",
"~. c #34D45A",
"^. c #0DEC48",
"/. c #31EF56",
"(. c #2DCC6B",
"). c #1EE368",
"_. c #31ED6B",
"`. c #4ED14E",
"'. c #78CC56",
"]. c #54EE5D",
"[. c #76F85B",
"{. c #53D469",
"}. c #70CA69",
"|. c #68D975",
" X c #4EF573",
".X c #70EF67",
"XX c #69E67A",
"oX c #87B03C",
"OX c #9EC73D",
"+X c #96F02D",
"@X c #899753",
"#X c #87BA46",
"$X c #8FAF51",
"%X c #86A959",
"&X c #A0B546",
"*X c #969773",
"=X c #8BB36D",
"-X c #ACBB71",
";X c #8EC34A",
":X c #98C64A",
">X c #9AC954",
",X c #A9CC4D",
"<X c #A5CD56",
"1X c #ACD757",
"2X c #B5DA56",
"3X c #BDE15A",
"4X c #8FC973",
"5X c #AFD26F",
"6X c #90EF76",
"7X c #BDE563",
"8X c #ABF378",
"9X c #C4E65C",
"0X c #CCDE6B",
"qX c #C8E867",
"wX c #D3EC65",
"eX c #DCF36B",
"rX c #CCE975",
"tX c #D7F177",
"yX c #E6F96D",
"uX c #E6F675",
"iX c #3AA687",
"pX c #478E86",
"aX c #6E9695",
"sX c #46B397",
"dX c #3EF685",
"fX c #78D483",
"gX c #51EE87",
"hX c #79F089",
"jX c #6CCDA7",
"kX c #72DFCE",
"lX c #8A9B88",
"zX c #ABAE83",
"xX c #ACB5B3",
"cX c #92CF88",
"vX c #9CDD9E",
"bX c #A9DA86",
"nX c #ACEA8D",
"mX c #B4EBA6",
"MX c #C9DA8D",
"NX c #C9E584",
"BX c #D5F292",
"VX c #F1FA8B",
"CX c #D2F2AB",
"ZX c #EEFDB1",
"AX c #A2C7C4",
"SX c #CEDACE",
"DX c #D3EACD",
"FX c #E8F7C9",
"GX c #F8FCCC",
"HX c #E7F8D7",
"JX c #F2FAD9",
"KX c #ECFCE5",
"LX c #F7FCE9",
"PX c #E7F0F1",
"IX c #FDFEF4",
/* pixels */
"    . = O O   . s >   o o o O . . > + . = O o     O +     X   X . +               .             O . O .                 .   . . ",
"    . O                         . =.s = + .       o         X = .         . .                       O                         . ",
"O O           > > O       + u o O u u = O O       .   . O     $ +   O                         O > o   o     .               . ; ",
"  .       O . . O o       lXPXs = = > O . . .   . o . . X   ; aXy     + .       . O o X .     O > o               O O .   O = + ",
"                .         ,.xXt . O O + .       O . X =   . ,.SX&.# O X . .       + O   X   .               o o o ; O       .   ",
"O .                     = > O . o + + > O X       . .     s SXDXP.N X   . .         . . = + > + o           O .               . ",
". . .     O =   . . t O O O . .   . O O = .             = xXIXDXF.#.0         .       X + X 8 u .     .   + O     +       o O . ",
"  O       . . . o   + . . > + = .     + O . O   +     X ,.IXIXDXZ.C.R s = . O               ] ] = = . > O =.u = O O       O     ",
"    O = .         .       O . +     . t = O > .       =.DXLXIXDXF.V.C.J.:           :     O %X..O o     O = O .             O   ",
"    = O =.>     = O   X O   . X       O + . = +     u SXLXJXIXDX{.!.D.V.+.&     +   >     p NXp.%   . .   .         O           ",
"        = O .   ' > O ; >     O     O X . O O .   = xXKXLXLXLXHX'.~.(.V.C.J O u >   O     :.BX<XF                 . O           ",
"          O ; O ,.:.    .   O     X O O O . o . o -.HXJXLXLXIXHX6X]._.D.V.G.,.AX,.= = O + %XVX1Xp.X     O             .         ",
"    O o = + + > zXMX8 X           .       . O = > R.DXHXLXLXIXHX8X]._.).D.sXAXPXxXs +   1 @XqX>Xd.9     . .                   . ",
"o   = O +     + *XZX&X8                       O -.E.mXLXKXLXIXJX8X.X/./.(.sXT.>.s =     | -X>X:Xd._ -   = =       = O O     $   ",
"> O + o O       *XZXVX-X`       X             =.cXE.vXPXLXLXIXHX8X.X/./. XH.G.@.&     . L.7X;XU.a. .i   > > O         .   . u O ",
". .           O zXVXuXyX3Xp.1 . X   O       -.vXcXP.fXKXJXGXLXFX6X].]./. X(.D.#.+.:   o @X,XU.f.a._ P O . = O       . =   . u + ",
"  ; .     = O . *XuXyXuXwX2XoXX.=         -.mXmX|.{.fXHXFXZXGXHX6X]./._.gX_.(.#.O.@.=   ..oXf.i.y.( %.=         O           O = ",
"          ;   = zXuXyXyXwX2XOX,Xp.8     X lXmXmX|.{.gXDXCXBXZXHXnX]. X~.gX_.Q.V.O.>.@.  , { r.u.{ ( @.+       O 1 .           o ",
"  o   o         @XwXuXeXwX9XOX,X:Xa.l = e 4XCXmXXXXXhXnXnXtXZXHXhX XgXgX{._.(.D.#.iXpX.   1 x m ! ( i   o   p L.p   =           ",
"  +   o       O ` &X0XeXwX9XOXOXoXt.( > ;.4XmXmXXXXX|.nX8X8XCXFXhX XgXgX(.Q.Q.D.H.*.G.:     @ h ! P $   + | 5X;.  = +           ",
"    O >       = -XNXuXuXeX3X;XOXd.r.&.+.4XbXbX}.4X{.}..X[.8XCXHXhX_.dXdX(.V.V.E O.A O.+.    . . G P o O :.5XL.-                 ",
"      O . =     @XyXuXuX9X2X:Xg.t.~ ) vXCXnXbXP.0.q.|..X[.8XbXW.J.gXdX).Q.D.A C w C C o.o   ' > 6 P   ] 4XK.J                   ",
"  .     . O     z 2X9X3X2XOXOXd.r.~ J.HXFXBXmX}.7.F.XX.X.XY.) &.N R H.).S.D.E C A A C O.q   [ ] 1 6 ] I.y.%.u           O       ",
"    . O O       % ..,X1X:XOXd.d.{ 0.SXIXHXCXCX5XF.P.].{.P.R B &.M 5 M R 7.V.7.T E A A o.Z = 1 G 6 F K.! G %.@                   ",
"    =   . = .   . | ,X1X,XOXd.r.m K.FXLXKXCXCXbXE.E.}.XX{.8.T C.M 3 5 w M U 7.7.B.A C o.*.e   - D G G N J > .     O           X ",
"          O O . . 8 @X:XoXf.r.m k Q 5XrXZXFXZXbXZ.}.6X.X!.S.B.#.w 4 4 w w M V W w.T A #.iXaX= o l , # : o : .     = .     . O   ",
"O       + +   X     8 t.d.t.r.Q k N U.+X+XMXCXP.8.E.hX{.!.S.A.C.3 5 4 4 w M M j S.R #.#.sXaXo = 6 X   1 :.R.t +           . O   ",
".       u *X@X' p X   % x ^ m k h w 0.m.+Xm.'.e.7.P..X~.S.A.A.V.< 5 5 w 4 g 5 c q.O.#.H.kX>.O & % > :.-XcXK O O   .             ",
"          ' NXVX0X$X` X X i N k h 5 N N.m.m.N.e.7.Z.{.F.A.w.A.7.< 5 5 4 4 M 3 w.7.T 9.H.AXxXt : 1  .W.E.T.: o   = O             ",
"            } 2X0X9X:Xp.9 O @ 2 g w 5 r.m.m.b.5.4.0.P.S.A.A.A.E , 4 g 4 5 j d w.6.6.z.gXjX>.1 # 6 ( @.@.t o o   =             X ",
"      O     X u.oXOX#Xf.u.9 . = < w 0 l n.n.b.e.5.n 7.V.8.8.8.T 4 3 g 5 g j d w.6.w./.|.G.o.& # L $.@.+.    O       .         . ",
"O .   .       % } i.i.t.r.H @ = O * 0 % b.j.b.j.k.n Y E E E E B 3 3 5 g B I j z.5.z.x.R o.@.= N R ) &.q     .     . O           ",
"= .             . 8 8 9 l H 6 .     q $ 3.j.n.v.l.1.I T E T T B 3 d g g Y v c z.x.e.Z w *.+.* N R +.*             .             ",
"O     . X       % > O     # N O     2 = 7 j.j.v.h.<.j I T T I B g g j v 6.b 0.M.&.C Z C *.q 3 Z e O   .         . .             ",
"              O ] ' t +     6 1 @ % u > % N.m.l.h.4.v B I Y B j g B v 1.w.P.Y.$.L S o.o.@.& * &     ; 1 y   X                   ",
"        .       H %X<X-XL.8   # * | L.*X-XNXBX6Xn.5.v j Y Y v I v v b F.4XW.J.$.o.C C *.t   O F ` | X.J.1   . . O               ",
"          O .   . H d.:X;Xf.z .   H Y.I.-X5XbX5X'.e.n j Y b b <.I 7.E.bX5XI.K.J.$.S O.o.  % K.5X<XY.y.L O       .               ",
"            .     X z u.d.a.u.H - % J.;.6 i r.Y.K.J.R f c b 4.4.q.4X4X5XrX4XY.J.L Z @.q % K.<X>Xa. .( :                     O   ",
"                  X @ % 9 l x H G q D D < @ 2.5.Q / R j b <.h.`.MXNXNXrX%X .M w < 0 : = x >X8Xg.u.( 1             . .       = = ",
"    .             X X         X X @ q * e @ 3 1.n M Z A b 2.}.BXVXMX%XP M w M <.v g 3 & y.<X1X;X#XL.[ | [ H D =           $ O . ",
"  O =                         $ O = % - * * # j b g w A 0.'.NXNX=XP w M M w 3.5.U j x I.qXqX7X1X<X;XU.U.a.u. .! D i :     .     ",
". . o           .           K F O = $ h N 1 # g c c 3 / Y.=XI.P < 5 w w N 3 2.k f Q d.tXtX3X3X1X>X;XU.i.t. .^ ( Q ( >.+.    O   ",
"o = .           . .         -     O = X < N < 3 g 1.^ J.;.P 3 5 g 4 4 j U 3 g j ~ 0.>XtXqX3X&Xf.d.i.i.t.0.[ ! Q $.J q O         ",
"O O         . .               ; :.>X$X} 6 * < 4 g _ ( G h j <.2.U v 7.w.n 3 g U ~ s.7XrXqX3X>Xd.m x x m H G L L q =             ",
"> ;                   . O . p 5XtX1X#Xa.^ 7 # 2 N e , k 5.k.k.c.6.w.z.w.v g V ~ t.>X$Xi.{ H x x x x x x x L J O   O O           ",
"O   . o               ; 8 | -X0X7X5X&Xa.^ G < # # , , d h.k.k.k.w.^.^.w.B j ) y.D N < < 4 5 3 3 h h h x L e       . = .         ",
"> o . .   O         . 9 X.@XoXf.$X:X#XK._ G N = , c f d c n.l.v.z.^.c.4.v W y.6 * 0 : o @ < 2 e e 1 7 e &         .   .         ",
"+ O O u = .             X 9 H u.u.u.y. ._ N e 0 7 f b c d 3.l.c.^.^.w.h.~ i.e Z o.+.o     o + o 1 O             O O             ",
"O     > =         O       = O 1 H ! ( H e O   @ < w n c d d e.v.^.4.h.k.e.H w L Z & O .   o O O       o         . .       .     ",
"o     . X         > .           . O % X . o X ; ; 1 k d f d f F.9.1.k.c.J.e 0 * O =       @ F F       O               .   .     ",
"        .         O     O       =   O   O F -.' D i J 6 b c f V j 4.k.).) e 0 * @ +         % -.=         O       O     . .     ",
"u +   O .     O   X               o O . :.:.+ + o : y D Q <.b b 6.w.^.C.Z : o # 7 N 1       6 J.-               X       O       ",
"u o   .             . . X             | @XX       O @ 6 P ~ 5.4.w.Q.B.Z +.O .   @ { I.] 9 H K.( q .           . X             O ",
"              . O > = . O           % -X'             - P ;.~ 5.w.R r *.@.O = O   # [ u...u.H 1 O                           O . ",
".       .     = . + X               8 %Xi X           O 6 i D q.R 0 q @.u . O =   .   O # % . O =                   .   .     o ",
".   O       .           O O O       $ I.} X O = O X   9 P i i J e q 0 @.q +   o                 O +                 O         . ",
"+ . O .             O   = > O   .   . 9 X.F y O     @ :.;.J i a e 0 0 *.0 o o o                   O                 . = .     . ",
"O .     . O             O X . .   + O = X O         O y K P i a q 0 r pX@.+ O o   . .     . .           O     O                 ",
"O .       .               O O O   o O                   X p J i q r @.+.:   o o . ;   . O O                                     ",
"o   O       .             .       . X           ;         O q +.>.r & o       o X     o O     > =                         O O   ",
"; t =.O     O .           > =     =     X       = X .     . = +.*.o             .             .       . O = O             . .   ",
"  u =.+           O       = .     . O               X .   O + - = + .         o =                       O = .                   ",
"+ o   +           X = .       O     O       . X     O .       O O > O         O                               .                 ",
"o   o O X .         O O       O   . .   + =           .       . .                                       X     .                 "
};
