/* XPM */
static char *D1739801690[] = {
/* columns rows colors chars-per-pixel */
"64 64 234 2 ",
"   c #010001",
".  c #0A0503",
"X  c #0B0906",
"o  c #04050A",
"O  c #0A060A",
"+  c #06090C",
"@  c #0C0B0B",
"#  c #130B05",
"$  c #120D0B",
"%  c #140707",
"&  c #14120D",
"*  c #19120D",
"=  c #0D0C10",
"-  c #050912",
";  c #130E11",
":  c #151313",
">  c #1B1513",
",  c #1C1A15",
"<  c #1D1B1B",
"1  c #161519",
"2  c #0F1110",
"3  c #221716",
"4  c #221A16",
"5  c #231D1B",
"6  c #241818",
"7  c #1F211E",
"8  c #24211C",
"9  c #2A221D",
"0  c #31241C",
"q  c #1F1E23",
"w  c #231B21",
"e  c #262323",
"r  c #2B2422",
"t  c #2D2A24",
"y  c #2C2628",
"u  c #2D2B2B",
"i  c #272726",
"p  c #312623",
"a  c #322A25",
"s  c #332D2A",
"d  c #3A2E2A",
"f  c #35312D",
"g  c #3A322D",
"h  c #363332",
"j  c #3C3532",
"k  c #3D3A34",
"l  c #3D3B39",
"z  c #393439",
"x  c #2F2E2F",
"c  c #423630",
"v  c #423A35",
"b  c #443E3B",
"n  c #483C38",
"m  c #45423C",
"M  c #4C423C",
"N  c #4D493D",
"B  c #52443D",
"V  c #423D41",
"C  c #454342",
"Z  c #4B4442",
"A  c #4C4944",
"S  c #4F4B4A",
"D  c #534644",
"F  c #534A45",
"G  c #594B47",
"H  c #534D4A",
"J  c #594D4A",
"K  c #56524B",
"L  c #5B534C",
"P  c #59564A",
"I  c #544E52",
"U  c #5C5553",
"Y  c #5D5A55",
"T  c #595655",
"R  c #64564D",
"E  c #635653",
"W  c #635A54",
"Q  c #6C5D55",
"!  c #645C5A",
"~  c #6A5D5C",
"^  c #695756",
"/  c #705F57",
"(  c #66615C",
")  c #6C625D",
"_  c #6A675B",
"`  c #72655C",
"'  c #736A5F",
"]  c #655F60",
"[  c #6D6462",
"{  c #6E6A63",
"}  c #6A6666",
"|  c #736664",
" . c #756B65",
".. c #796D65",
"X. c #746C69",
"o. c #7A6E6A",
"O. c #75666B",
"+. c #7C736C",
"@. c #777169",
"#. c #7D7572",
"$. c #7E7972",
"%. c #797674",
"&. c #82756D",
"*. c #85786C",
"=. c #827673",
"-. c #847B74",
";. c #8A7D73",
":. c #847D79",
">. c #8C7E7B",
",. c #907F75",
"<. c #8B8275",
"1. c #8C837C",
"2. c #87817A",
"3. c #93857C",
"4. c #93897D",
"5. c #96857B",
"6. c #878281",
"7. c #8C8581",
"8. c #8C8984",
"9. c #938A83",
"0. c #9A8C84",
"q. c #9A8D8B",
"w. c #948885",
"e. c #9C9285",
"r. c #96918B",
"t. c #9C928B",
"y. c #9A958A",
"u. c #9D9391",
"i. c #9E9992",
"p. c #979893",
"a. c #A18F87",
"s. c #A39285",
"d. c #A2958C",
"f. c #A9968B",
"g. c #A3998E",
"h. c #A99C8E",
"j. c #A39791",
"k. c #A49A93",
"l. c #AA9D94",
"z. c #A49C9A",
"x. c #AB9E9A",
"c. c #B09F97",
"v. c #ABA094",
"b. c #ACA39B",
"n. c #A9A49B",
"m. c #B0A396",
"M. c #B2A59C",
"N. c #B5AB9C",
"B. c #BBAA9C",
"V. c #BAB29D",
"C. c #AD9FA3",
"Z. c #ADA5A2",
"A. c #AEA9A2",
"S. c #B3A6A2",
"D. c #B4ABA4",
"F. c #BAACA3",
"G. c #B9AEA8",
"H. c #B3ADAC",
"J. c #BCB2A6",
"K. c #BDB3AB",
"L. c #B8B3A9",
"P. c #BDB4B2",
"I. c #BEBAB2",
"U. c #AFB0A0",
"Y. c #C3B4AC",
"T. c #C2BBAE",
"R. c #CBBCAD",
"E. c #C5B4A8",
"W. c #C2B6B1",
"Q. c #C5BBB3",
"!. c #CBBDB4",
"~. c #C6BDBA",
"^. c #CABDB9",
"/. c #D1BFBB",
"(. c #CCC1B3",
"). c #CDC3BA",
"_. c #C9C5B7",
"`. c #D2C2B6",
"'. c #D3C5BC",
"]. c #D3CABC",
"[. c #DBCCBD",
"{. c #D8C8B9",
"}. c #D8D2BE",
"|. c #E1D0B6",
" X c #CEBEC1",
".X c #CDC3C2",
"XX c #CFC8C2",
"oX c #D3C6C2",
"OX c #D4CAC3",
"+X c #DACDC3",
"@X c #D6CBC9",
"#X c #DBCECA",
"$X c #DBC6C3",
"%X c #DDD2C4",
"&X c #DDD3CA",
"*X c #D8D3C9",
"=X c #DDD1D3",
"-X c #E3CEC1",
";X c #E3D3C4",
":X c #E3D4CC",
">X c #E4D9CD",
",X c #ECDBCE",
"<X c #EAD4CB",
"1X c #E2D6D1",
"2X c #E5DBD2",
"3X c #EBDDD4",
"4X c #EBDED9",
"5X c #E4DBDA",
"6X c #F3DED5",
"7X c #F1DFD8",
"8X c #ECE2D5",
"9X c #EDE3DB",
"0X c #E7E3D9",
"qX c #F3E4D5",
"wX c #F3E4DB",
"eX c #F9E6DA",
"rX c #F5EADC",
"tX c #FAEBDC",
"yX c #FEE9D4",
"uX c #F6E9D6",
"iX c #EBE5E2",
"pX c #F3E5E2",
"aX c #F5EAE3",
"sX c #FBEDE3",
"dX c #FCEEE9",
"fX c #F8EAE6",
"gX c #FEF2E5",
"hX c #FFF9E5",
"jX c #FEF4EB",
"kX c #FFFBED",
"lX c #F6F2E3",
"zX c #FFF5F2",
"xX c #FFFCF4",
"cX c #FFFFFB",
/* pixels */
"=.L a : + + o   r gX{     T.Q.o   j M .       o o $ +   > .XjXS   o f :X2Xg   + : @         . k C     q.4X$   v xXU   . o . $ 9 ",
"            # , e.uX,   h kXW   O _.kX-Xf.L ,         5 OXpXb         9 [.qXv         > m 9.'.dX3X<   g zX!     oX^.6 $         ",
". , l ~ 0.E.>XtXkX1.    a.5X:   N hX*.<.+XgXgX`.:.j n wX:X9   o l H     & T.xXU a O.W.rXkX2Xd.` sX$.    P..X.   ^ zXzX4X!.t. .m ",
"[.qXgXtX>XJ.4.~ m 1   , wX>.    N.%X    . f  .F.qXsXxX!.3     V aXxX)     @ v.xXsXsXY.=.b @     C.5X@   U jXl   ; c E >.N.+XtXgX",
"g.X.Z 8 X             ` jXt   r gX..  +         3 J $.>     U xXJ.0.xX-.    . O.! 6         o   V xXH   = <Xf.            . 4 n ",
"            . > k W 1.sXS.    6.gX,   u %.j X             %.cXz.o   %.cXj.. .         + s ..M     @XY.    +.kXs.` M < +         ",
"o > h L -.N.+XtXjXsX:XW.k   $ 4Xk.    5.cXjX1Xk.U 7     1.cX6.    +   ( xXF.$   , Z r.&XsXcXY.X   ~ zXs   5 n.:XlXjXtX;XF.3.U v ",
", `.jXgX8X^.k...N 9 $       W xXg   4 6Xs.n t.:XjXdXY.Y.xXo.    $ :     Z jX].M.sXjX4Xb.J ..jXk   > pX7.      + 8 b ` s.T.3XjXjX",
"< aXd.r ,                 # ).(.    } jXe     @ g [ P.4X!     @ G.$Xr     k [.).+.v &     X :Xg.    q.0X5                 @ e ..",
": 9X`   o     : s H +.l.`.6XkXP   . @XM.  -           @     , .X4X-X9Xj     $           @   +.tX5   f lXrXoXS.:.^ j > .       h ",
". :X:.  X &.T.8XjXjXrX{.v.+.A 2   Z kXm   : y.+.f X       t 0XiXf $ !.gXA         r _ g.9   8 sX@.  @ l @.z.~.wXdXjXqX(.4.1   Z ",
"  +Xq.  . +XwX+.P f >             S.[..   P xXsXjX%Xk.A F fX@X5   + X M.xX) n 9.].gXtXkX;.    x.&X            & y F ' {.gX<   L ",
"  OXx.    ^.j.            : t M =.xXO.    Q.(.4 L h.&XgXcXI.&         o p.xXsX3XS.] , a.,X&   M kXr.A s >             _ 0X&   ( ",
"  Q.A.    F.Y.  + h [ d.!.,XgXkXpXW.4   h kXP       o h ( @      .0.    . Y Z $       d jXW   . k.wXhXgXwX'.h.@.m @   :.&X@   _ ",
"  G.J.    M.`.    n.xX#XS.>.R l , o O   t.2XX   + o       o   ;.jXhXv.X           . .   Y.!.      : f U =.m.{.jX+X.   t.%Xo   ..",
"  k.).    l.].    k.[..               4 rX1.    9.Q.| s . # u.cX+.B hXQ.&   r ^ M.D.$   P kXb                 m.].    k.{.    2.",
"  t.$X    q.;X.   e.-X. o @ 6 v ] 0.J.8XfXs   u tX,XwXjX].`.jX!     v aX:X^.gXsX;XkXF   $ #XlXQ.h. .m 5 $ +   M./.    b.R.    9.",
"  F.=Xo   1.>XX   9.,X@   [ pXsXsX:XE.w.H O   >.sX4 3 L z.+XF         a (.N.~ r % ].J.  O v ,.B.|.uXjXsX3.    J.Q.    Y.J.    i.",
"L.kX$.o   &.wX*   :.3X$   #.jXG 6 @         o 0Xp.        o o   h Z     O         ` jX9           , c ,XM.    W.F.    ).h.    K ",
"4XS   o   4.gX,   X.wX>   [ eX$       o , s 7.kXj   = 1       k 0XkXU       1 1   : 9XF.g < o     o   '.k.    $Xk.  o +XR.      ",
"7     2 b.xX9.X   P sX9   ! sX8   u n.'.wXgXjXx.o   ) 9XF.~ ^ jXY.f.xX&.R x.wXq.    :.jXgXsX+XN.Z   X -Xt.    -X3.  + [ jX).9   ",
"    m >XtXU       +.kXs   J sXs   K cXm.' N r $ O . oX:XY.fXcXS.%   >.kXsX'.!.9X5   + q n ) t.xX;.  $ <X1.  ; 3XM.      l :XtXQ ",
"X 2.xXT.8     $ i.xXk.:   c gXl   m gXr           D jXB   r A @       b x   < dX=.          X 3Xo.  > 6X`   O :.xXP.8     * h.xX",
".XxX2.      f %XgXX..     Q xXC   k gXl   : A ..t.qX+X. o       X &       o   b.jXb.%.L <   4 eX~   6 gXq.      F wXfXG       W ",
"@Xm     . ..xX].t     X >.zXF.1   9 lXK   a gXrX'.n.M   = z : X b.'.5 # h &   s u._.4XcXL   p sXD   + 9.xXS.>     , S.xXt.*     ",
"c   o i K.jX9.o     s ].xX+..     F xXW   8 tX_         d jX8X3XtX,XqX>XxXY         k gXD   j cX+.  o   L sX4XD       ) gX*Xb   ",
"x..   I cX;.  o @ ) lX&Xl     . *.zX!.8   # 4XX.  X & 8 b.4X1.Y.v 8 U.4.].'.t : +   m sXs   & x.cXk.&     5 K.xX6.1 O   H cX2.  ",
"jXN   o ^.!..   s xXQ.%   o y K.xX>.%     g kX8.  2 L.rXcX$.            D jXlX@Xu   I cXW       [ jX+Xl O     e.cXT     q.iX:   ",
"$X).    b xX!     n.:X% o @ OXlXM   o . } dXoXu   . %XL.a @ +         + + r 5.aX8   1 D.xX7.@ o   r +XsX9     D.*X;   j kX{   . ",
"D cXU     b.9X$   t xX-.    r.aX>   o w.xXj.;     9 rXr.  +   j $.<.M   +   ^ zXF       o.zXP.= o . '.K..   S cXK     P.#X;   t ",
"  S.2X#   s jX$.    r.sX6   > pXj.    $.jXs     I qX%Xl o   ^ tXcXkXgX:.    9 E.gXX.o   # 7XC.    ) xXl   . ].!.    A xXK     l.",
"  a xX%.    t.pX<   5 pXe.    o.zXh   # -XG.    ( cXR     5 ,X,XG v ).kXb     d xX8.    <.sXr   : 4Xn.    W xXb   o oX^..   N sX",
"O   z.aX1   4 gX7.    &.xXu   $ 3XA.    R xXC     R.$Xo   Z cX+.    B xX@.    x.8X:   e lX<.    1.zXs   = 3Xv.    Y cXn   . _.}.",
"o   _.OX+   b kX!     x.>X1   a jX:.    ;.sXr   < :Xg.    V xXj.    +.xX{     X.aXk   @ }.V.    L jXH   o Q.'.@   k jX|     j.wX",
"  R xXl   . ].'..   b xXW     A.5X$   i tX*.    X.cX..  o o Y.xXM.f.sX>X<     D cXA.    B jXI     T.&X@   f xXO.    u.aX,   e 2X",
"$ ;XM.    ^ kXB   . ^. X.   m xX)     b.jXp   o 4 k.hXo.  o r F.tXhX(.c +   Z tXY.h     # wX@X.   k kX{     j.wX:   e gX1.    o.",
":.jXs   + #XJ.    P xXD     ).2X.   + H 3X9XS     . -Xq.      O u x @   O   ^ tX5     s OXfXX.+     V.0X,   r gX1.    ;.jX9   > ",
"sXu.    ..kXg   : &XE.  O + y.kXu.;     w L.zXY   * 2X6X0.d             4 =.'.jXs   h aX+Xj       -.gXI.> X   1.xXu   * 3Xz.    ",
"7Xy   5 aX4.    t 0X8XA       ) jX1Xb .   # rX7.  @ @.D.jXM.. u o   t # &.cXP.6.<   I jXd     8 Q.xX2.X     g OXgXS     Q zXb   ",
"~     Y cXm.:     < L.cXq.X     p ^.dXV   , uXW         [ xX2XxX3._ kX3XkXt.        f gXc   y 2X:XM       @.xXOXf     . <.cX6.  ",
"R   o + P aX9XZ       | jX*Xg o   r sXW   t gXd.h 5 .   , P.9.2.gXxXd.+.Q.l   X < s +.kXK   d jXF   O 9 G.xXw.$     y !.xX$.; o ",
"jXg.=     5 Q.cX*.X     s [.rXf   s tXF   9 (.wXzXgX>.  +       Y $.      X   U rXgXtX>XZ   i sXL   > @X9XA       ! jX:Xb       ",
" .jX=Xz     . $.xX(.y o   v gXm   m gXf   + # 7 g b.aX4                       @XoXk e : O   > qX|   6 sX..  o > b.cXz.@     5 F.",
"  s XXxX .      b 5X5Xw   M gXf   F gXv           9 tX+.p +.S.g     4 z.1.g F kXA           5 qX&.  $ 3X&.  O W.dXW       H wX0X",
"    @ 1.cXG.< o   U jXd   E dXy   H kXuX+Xb.;.v     x.xXgX8X9XaXv 9 :XsX3XgXxX{.$   x @.f.).3XxX+.  + :Xw.  $ 3X4.  + ; 0.cXS., ",
"'       A 3X+X*   W eX4   | sX5   1 N  .g._.gX%X&   l p.S , & K.lXqX:Xy $ M q.Y     L.xX`.v.+.H <     }.d.    +X0.  . b.jX|     ",
"xXA.,     ..tX,   +.6X&   | wX$             v xXY   X         . n.).,             a zX|               (.k.    /.x.    *Xx.  o & ",
"W lXK..   -.8X$   >.,X$   =.xXM.+.F p : o o   Q._.      8 l o   X +     l y       q.pX;   o & r M X.f.kXG.    E.K.    (.b.    <.",
"  q.*X.   3.2XX   9.<X#   b f.'.wXgXsX8Xx.+   U jXQ  .~.pXcXk..       $.xXdX`.:.D wXw.    7.iXdXjXfX+Xn.T     F.!.    D.J.    t.",
"  j.).    g.+X.   q.{..   o     > g L a.xXA   ; -XkXwXW...' kXK.$   9.cX1.Q D.3XjXjXa   i fXG.U l w o         k.`.    k.`.    1.",
"  v.!.    v.`..   C.7Xn 6 @             OXD.    F W 6       M gXR.v.xX'       > D ~ O   =.dX:             8 j !.%X.   d.}.    2.",
"  E.N.    N.R.    1.wXsXsX2XQ.t.{ v @   [ jXw o         o     s >XhXH   o           o = 1Xj.  . s Q 0.E.:XsXjXrXM.X   0.;XX   _ ",
"  (.b.    Y.S.  + o 3 j ! 9.L.:XfXfXj   > aX1.    1 Z q.!.l     t l     8 F.l.K 5     J kXj   , %XgX:X^.t...b 5 $ +   @.>X@   _ ",
"  {.h.  o ).M.                  9 2Xy.    q.9Xo.F.sXjX:X:XgXK     o   t 0X8X].kXdX^...'.T.o   ) hXv .                 &.qX>   Y ",
". }.4.  . `.jX;XJ.9.) b 6 @   o   2.aX1   f jXlX!.+.b $ $ b.cX(     m jX.X8 o h  .H.aXcX!   X _.L.        > j R 5.D.+XtXwX8   H ",
"X 8X$.  @ d _ 9.J.&XrXgXeX+Xv.4   i jX .  @ C 8           . t.cX&.R jXP.$           : Z :   m kXA   $ 4.{.wXsXyX;XR.t.' m @   b ",
"> 9X'             X 5 M ) t.kX1.    M.#XO o       . t S +     &.kXkXz.      F k X       o   n.}.X   H kXN.X.A r @             s ",
"8 tX%X1.~ j , O             y.8X$   Z zXZ   3 Z 9.].aXcXS.+     _ <.      1.xXjX&Xg.U 8   4 lX..    I._.              > d E -.Y.",
"2 2.(.4XgXjXeX+XD.-.H u @   k kXW   X ).*Xb.uXkX8XF.E ^ gX).,   o     . z.cX+.F l.>XjXlXK.T.8X8   f kX(   = r N @.v.].wXjXdXwX`.",
"      @ w Z o.l.`.,XgXxX[     !.^.    _ jX_.<.k $       j rX1Xr     # K.xXU       O f @.K.gX4..   4.9X&   l rXhXqX$XM.=.J t $   ",
",                 * 9 K.@X%   W kXc   : y           @     u 1XiXg , ].gXC     X           e ,   > qX9.    x.>Xg >               ",
"7XOXc.&.F y $         M cXb   $ 3Xt.          i ( D.1XF     > ).gX0X0Xa     a .X!.@.s %         { kXa   5 sX..        # 9 D ..g.",
"..h.`.3XsXeX<XQ.t.j   . oXF.    ;.tX4 $ A 1.'.pXsX!.^.kX_     X n.*Xq     b wX*XB.wXsX+Xq.J 6 % OXK.    -.aX4   9 9.E.-XrXsXqX{.",
"      3 h E >.D.kXK.    | gXp   t qX).{.jXeXB.` p   . k.kXX..   @ &   o H sX).*   6 L k.3XsX|.E.sXH   & :Xk.    8.xXY.9.! l ,   "
};
