/* XPM */
static char *doo1739806318[] = {
/* columns rows colors chars-per-pixel */
"64 64 225 2 ",
"   c #151415",
".  c #1C1B1C",
"X  c #181718",
"o  c #26211D",
"O  c #1E1D22",
"+  c #201E22",
"@  c #1E262E",
"#  c #232223",
"$  c #2A2624",
"%  c #2C2A2C",
"&  c #282629",
"*  c #322D2B",
"=  c #322A25",
"-  c #3C332C",
";  c #35302E",
":  c #232B33",
">  c #2A2D35",
",  c #2B3239",
"<  c #353233",
"1  c #3A3533",
"2  c #3D3A35",
"3  c #35353A",
"4  c #3D3A3B",
"5  c #39373A",
"6  c #322F33",
"7  c #201E1A",
"8  c #46382C",
"9  c #443B35",
"0  c #433D3C",
"q  c #493C37",
"w  c #513E2F",
"e  c #3B403D",
"r  c #4C4134",
"t  c #45413C",
"y  c #4B433D",
"u  c #4B493D",
"i  c #544334",
"p  c #5C4634",
"a  c #53453C",
"s  c #5B4B3C",
"d  c #58493A",
"f  c #52402F",
"g  c #634A36",
"h  c #634D3A",
"j  c #694E3A",
"k  c #65513D",
"l  c #6C523C",
"z  c #6D583F",
"x  c #71553E",
"c  c #3B3C43",
"v  c #323B44",
"b  c #2E3641",
"n  c #433E42",
"m  c #394249",
"M  c #3A4653",
"N  c #454143",
"B  c #4C4443",
"V  c #4B464A",
"C  c #4D494A",
"Z  c #494746",
"A  c #534643",
"S  c #534A44",
"D  c #5C4C45",
"F  c #534C4B",
"G  c #5B4E49",
"H  c #524749",
"J  c #54534B",
"K  c #5B534C",
"L  c #5A5549",
"P  c #444D52",
"I  c #495257",
"U  c #5B5553",
"Y  c #585857",
"T  c #4F5050",
"R  c #614F46",
"E  c #645244",
"W  c #6A5442",
"Q  c #62534B",
"!  c #64594C",
"~  c #6B5B4C",
"^  c #6B5946",
"/  c #735641",
"(  c #745A43",
")  c #7B5C45",
"_  c #735D4A",
"`  c #7C5E49",
"'  c #635B53",
"]  c #6C5C52",
"[  c #635C5A",
"{  c #655A54",
"}  c #715E53",
"|  c #5D6259",
" . c #74614C",
".. c #7C634C",
"X. c #7C6045",
"o. c #6B6154",
"O. c #6D635C",
"+. c #6B6C5B",
"@. c #656558",
"#. c #746255",
"$. c #7A6351",
"%. c #7C6A5D",
"&. c #75685A",
"*. c #70715F",
"=. c #4A5867",
"-. c #565D62",
";. c #5C6568",
":. c #686B65",
">. c #7B6D62",
",. c #736A63",
"<. c #6C716A",
"1. c #737264",
"2. c #78776A",
"3. c #6D767A",
"4. c #7B7D73",
"5. c #747A75",
"6. c #805F48",
"7. c #84634B",
"8. c #8A664C",
"9. c #8C694E",
"0. c #836349",
"q. c #926B4F",
"w. c #856A53",
"e. c #8D6B51",
"r. c #866A56",
"t. c #936E52",
"y. c #986F52",
"u. c #8E7156",
"i. c #8A735B",
"p. c #957155",
"a. c #9B7355",
"s. c #94745A",
"d. c #9B7559",
"f. c #9D795B",
"g. c #96795E",
"h. c #A37B5C",
"j. c #A87C5D",
"k. c #816E61",
"l. c #847163",
"z. c #897A68",
"x. c #9C7D61",
"c. c #947D64",
"v. c #847C73",
"b. c #A67E60",
"n. c #7E8278",
"m. c #7E806B",
"M. c #AB805F",
"N. c #9C846A",
"B. c #998167",
"V. c #838373",
"C. c #8A8B76",
"Z. c #87887A",
"A. c #92947E",
"S. c #8A8A76",
"D. c #A38264",
"F. c #AC8363",
"G. c #A4866A",
"H. c #AC8A6C",
"J. c #A9876A",
"K. c #B18664",
"L. c #B48C6B",
"P. c #B48968",
"I. c #A88C70",
"U. c #AC9174",
"Y. c #BB9B7A",
"T. c #B69575",
"R. c #B9906E",
"E. c #C29D7B",
"W. c #C5A27E",
"Q. c #727C82",
"!. c #7D8689",
"~. c #8A8E83",
"^. c #868C88",
"/. c #8D9287",
"(. c #939584",
"). c #9A9A85",
"_. c #95998D",
"`. c #9B9D8B",
"'. c #939687",
"]. c #999E92",
"[. c #969C93",
"{. c #9EA18D",
"}. c #9DA294",
"|. c #9EA498",
" X c #A3A38D",
".X c #A3A593",
"XX c #A6A995",
"oX c #AAAB94",
"OX c #A2A699",
"+X c #A4AA9C",
"@X c #AAAD9B",
"#X c #AEB19C",
"$X c #AEB195",
"%X c #B2B39E",
"&X c #B0AF99",
"*X c #A9AEA1",
"=X c #ADB2A3",
"-X c #B3B6A2",
";X c #B6B9A5",
":X c #BABBA6",
">X c #BABEAB",
",X c #B6BAA9",
"<X c #A49483",
"1X c #C7A784",
"2X c #D7B68E",
"3X c #BEC1AC",
"4X c #BDC1A5",
"5X c #BEC3B1",
"6X c #C2C4AD",
"7X c #C6C9AE",
"8X c #C3C6B2",
"9X c #C5C9B4",
"0X c #CACCB5",
"qX c #CBCEB9",
"wX c #C7CCB8",
"eX c #CDD1BB",
"rX c #CED0B6",
"tX c #D3D4BC",
"yX c #D6D8BD",
"uX c #D7D9C1",
"iX c #DADCC3",
"pX c #D4D7C1",
"aX c #DEE1C6",
"sX c #E1E3CA",
"dX c None",
/* pixels */
"qXtX0X0X7X7X6X6X6X3X3X3X8XeXyXtXpXpXpXpXpXpXpXpXeXeXeXpXpXwXeXeXeXeXwX9X9XwXwXwX0X5X5X3X5X5X,X5X,X,X,X,X4X=X3X,X=X=X=X=X*X=X*X[.",
"uXtXtX0X6X:X.X%X3X6X6X6X0XyXpXiXwX5X5XwXwXeXpXpXpXeXwXeXeXeXeXwXwXwXwX9X5X5X5XwXwX5X5X4X,X3X5X5X>X,X,X,X-X@X*X+XXX|._.OX@X+X*X*X",
"tXaXyX6X-Xv.U T 1.%X7X6XqXqXeXpX3X4X4X4X3X3XwXeXeXeXeXwXqXqXeXqXeXwXeXwX5XwXwX5X5X5X5X5X,X5X5X5X:X;X=X=X#XXX{.{.2.@.-.<.^.+X*X+X",
"rXyX7X4X%X{ n 3 + Y -X6X0XqXeX9X3X3X3X5X3X3X3X8XeXeXwXwXqXqXqXqXwXwXwXwX9X5X5XwXwX5X5X5X5X,X=X-X-X;X=X#X$X|.A.C.u 0 B c b <.|.OX",
"tXrX5X4X XJ V 3 O : n.5X7X0X0X7X4X3X3X5X5X3X4X3XqXpXqXqXqXqXqXqXqXwXwXwX5X5X5XwX5X5X5X5X4X,X;X;X%X-X#XXXXXXX(.m.9 9 V v b c ;.[.",
"yXrX9X2X(.O.[ 6 @ , I ;X7X0X0X9X4X5X3X3X3X3X5XwXpXeXeXtXtXeXqX0X0X9X9XwXwX9X9XwXwX=X@X5X,X;X4X;X%X%X#XXX.X{.{.(.1.y ,.V , M M ;.",
"rXrX7X6X).z.2.6 : , m _.0X0X0XeXeXeX0XwXwX0XeXpXqXqXwX,X=XoX`.'.'.(.)..X=X4X5X5XwX4X=X5X,X,X;X%X-X#X#XXXXX{.{.'.Z.J ,.V b v M =.",
"rXrX7X$X1.K H > @ : : n.0X0XrXeXtXeXuXtXaXpX5X4X+X'.V.<.:.@.+.+.@.@.+.1.2.m.C.{.=X3X5X5X5X3X,X;X%X#X#XXX|.{.{.m.@.t H v b v M =.",
"tXrX&Xv.Z.a 2 # @ 3 > <.0X0XrXtXtXeXyXuXeX;X'.m.| J J J J J J U Y L @.+.@.@.*.m.V.A. X4X3X3X4X-X-X-X$X X{.{.2.C 0 9 1 $ > v c =.",
"rX0X(.~.G ; * X # Y b I 5X8X0XtXeXyXtX8X{.5.| e e u Z L @.*.z.z.B.V.i.m.&.@.@.@.*.m.m.A.XX4X3X,X;X=X$X.X{.V.H B % - - + + b v =.",
"rX7XS.v.* $ #   = V.N , ~.-X:XyXeXtX-Xn.Y e 5 < | *.c.I.U.1X1XI. .B.D.G.L.U.U.z.+.@.*.m.C. X%X4X:X-X#X.X{.+.,.5 o - $ X   n c =.",
"rX7XZ.v.% . .   = V.N : -. X&XyXeX#XY 3 , , $ B.U.T.Y.H.J.E.H.x.e  .s.s.d.f.B.U.N.B.*.*.m.C.{.%X,X-X$XoX).@.v.4 = $ X   6 =.v =.",
"tX7Xz.<Xn + 9 * B v.> > I _.oXyX,XY , : 9 t r U.D.T.Y.L.b.1XH.l.N S p.d.d.d.u.e.u.s.N.i.@.m.C. X-X-XoX.X).@.! N $ $ o o n n v =.",
"tX7X(.] S.F U ,.Z.F + b ;.'. X:X<.b @ m B.! ^ 1XM.T.Y.L.b.T.J.>.e N ..p.d.y.u.i.a.p.a.J.B.+.V.A.oX%X@XoX{.1.y Z 5 1 Q n F c v I ",
"tXrX>X>.K O.,.>.B + > M ].'. X(.m : y N.I.i. .1XJ.T.B.B.b.J.N.U y N L a.s.7.! $.f.a.a.d.T.V.+.C.A.$X#XoX{.A.F 1 n n n n : b v Q.",
"yXrXrX9XZ.t $ + O : c '.8X_.).:., y I.J.J.G.g.W.J.T.#.Z G O.>.H S F A D A n 5 $.s.f.a.f.T.Y.i.*.A.{.#XXX.X`.C.G * $ + @ @ v =.[.",
"tXyXyXaX7X&Xv.@.Y 3.+XeXeX'.5.m 6 I.T.J.F.T.U.Y.b.T.c.U H [ { F H G G n n n n s.d.d.a.d.T.I.b.] 1.A. X$X@X|.{.(.1.P b m M ;.}.|.",
"yXiXaXaX0XrXtXqXrXeXyXyXeX5.I , #.Y.Y.L.K.L.2XL.H.P.x.2.{ } G n n G n n F n R p.a.d.a.a.H.b.u.l.L V.A.%X=X@XXX}.{.(._._.}.@X|.n.",
"tXaXaXiXiXyXyXyXyXyXuXuX,X<.m 5 U.R.T.L.F.b.E.F.L.J.c.v.,.n D H H G G U T n ^ t.t.y.d.p.b.x.t.s.^ @.C.$X-X=X=X@X{.{.|.@X,X|.'.}.",
"pXaXaXaXyXyXyXyXyXpXuXeXXX;., ~ T.P.L.L.b.h.x.r.} { K >.O.n { G V G U ,.Y n n R ] 7.t.p.t.t.t.e.i.u C. X-X=X@X+X|.|.#X=X*X_.*X+X",
"tXiXiXiXaXiXyXyXuXiXiXwX/.P , B.L.L.L.G.r.} K F H F D _ U F ,.F H Q T ,.F n n H n n R ` 7.t.t.t.s.! C. X$X.X.XOX}.|.*X=X*X|.=X+X",
"tXiXpXiXiXaXyXyXuXuXaX3X5., u T.L.L.L.H._ a 0 0 B F Q _ U G [ C n U A [ F H U { n 9 < 1 0 ` t.q.8. .m.$X#X$X+XOX}.}.+X|.}.|.=X=X",
"tXyXiXiXaXyX7XyXuXuXuX@X-., o.2X1XP.L.L.F.d.t._ q 0 H } { H E y 0 V A ,.H n 1 < 6 9 D / 7.t.y.y.9.w.@.$X#X%XOXOX|.+X|.|.|.|.*X=X",
"rXaXiXiXaXiX0XrXiXuXtX/.P , B.2X1XP.H.F.b.b.L.L.b.7.&.S.Q A R G B Q U A q n q W 7.s.y.y.y.y.y.y.t.s.~ {.oX-XOXOX+X|.|.|.|.[.|.=X",
":XrXaXaXiXsXsXsXaXpX&X<.P < T.2XE.K.j.P.j.K.P.P.j.t.U.Z.E D F F B F B A q 4 E p.y.d.y.y.y.y.y.a.p.s.^ C.oX%X@XOX+X+XOX|.|.}.[.^.",
"oXoX X X`. XOXXXXX~.2.:.P 2 1X1XE.K.K.R.K.K.P.K.j.a.<X:.G ' K H 0 B a n 0 0 H t.y.a.d.a.y.a.a.a.y.s.w.1.A.(._.'.^.A./.~.~.~.Z.;.",
"dX,.} } ] o.{ { ! { { N & u 1XR.j.E.j.P.j.P.P.K.j.d.v.5 < 2 t 0 0 n 1 9 1 4 0 e.s.a.d.a.y.a.d.y.y.f.l.y o.] { G u S K K K U Y dX",
"dXk.c.z.l.l.k.k.z.l.%.5 + ^ Y.P.E.P.j.E.P.K.R.P.K.a.D d &.T.r.0 0 5 A t.` W A 7.a.y.a.a.y.y.y.a.p.g.N.9 E #.] R L L G R G G Z dX",
"dXk.z.l.l.l.k.k.z.z.&.< + _ Y.H.j.P.P.P.P.j.P.j.j.h.f.M.L.2Xg.B 4 1 _ d.t.t.p.y.a.y.a.y.y.q.y.t.p.f.G.r h } ] R R G D G D G B dX",
"dXdX%.%.r.k.%.%.k.l.! 0 + $.L.h.P.j.P.P.K.K.K.j.j.h.M.M.D.E.d.L 4 1 w.d.y.t.y.t.y.y.y.y.q.e.8.t.q.9.G.D R } ] D G D D D R Q V dX",
"dXdXH o.2.,.&.&.] ] ' n . #.H.b.j.K.P.K.j.F.h.b.h.a.j.M.M.U.d. .1 0 a.a.q.u.t.t.y.y.t.t.9.8.t.q.8.9.G.a a ! Q G G G G G G B dXdX",
"dXdXdXqXpX8X8X8X5X;X].4.U #.N.U.P.K.R.K.h.h.h.j.h.h.j.j.f.D.s.B.% E a.a.p.e.e.t.8.8.9.8.7.t.q.8.8.w.&.S D ] ,.G R R Q Q K B dXdX",
"dXdXrXpXtXqXtXtXqX8X.X<.,.>.{ ,.z.I.Y.F.b.d.x.f.u.e.f.h.M.B.u.H.D w.a.a.y.q.q.8.7.7.r.t.8.8.r.` Q H V K C R } R G G D D G n dXdX",
"dXdX0XrXqX9X8X9X8X8XOX:.] #.} [ U [ >.k.c.p.s.r.[ S w.a.p.D.u.H.J.J.a.a.a.q.0.! Q } r.r.8.} Q F V C V F N D #.R R G D G H n dXdX",
"dXdX6XqXeX0X6X6X3X6X].@.! } ] Y Q ,.O.O.Q Q J F [ Z t  .a.D.s.F.J.F.a.y.t...K Y V n F V V V V n V Y c V 0 D ~ G D G G D R H dXdX",
"dXdX6XtXeXwX6X>X<Xv.| c H G ' q G H 0 6 * 9 - r 4 3 $ k p.p.s.G.D.D.t.q.8.) u n 5 % 2 0 9 0 4 V n 0 c V A k.,.V q R G A R Q dXdX",
"dXdX6X9X0XqX9X4XZ.Y c b F S ] { 0 $ 1 h w.p.p.9.s * W p.s.f.a.J.D.L.d.9.q.9.7.a 1 { B.x.g.G.$.A 0 0 4 y A l.2.n 9 R A A G H dXdX",
"dXdXdX%X7X0X8X>XZ.F c 6 y ; < * w _ p.h.d.a.a.a.p.9.d.t.p.s.s.G.D.U.d.9.q.9.t.8.N.G.9.0.` w.b.J.r.D - 1 0 L J N H { { U U dXdXdX",
"dXdXdXV.v.1.@.[ ' O.U 6 # y ^ $.d.d.h.d.a.a.d.a.a.d.s.9.p.u.u.G.x.G.s.t.9.t.t.7.I.x.8.7.7.0.6.8.9.c.i.2 1.).@XOXOX+X*X*X|.^.dXdX",
"dXdXdXr.l.l.l.>.i.l.Q n & ~ g.e.x.d.h.h.a.a.d.d.a.p.t.9. .E w.D.N.x.e.7.} w.9.7.x.f.0.8.7.8.6.7.7.w.w.D A.oX:X+X*X+X*X*X*X!.dXdX",
"dXdXdX} >.%.k.%.&.] a * . ^ g.t.a.d.h.a.a.p.a.a.p.t.w.} C * ..B.x.u.0.` K S ` 7.t.p.8.7.7.9.7.6.8.r...D *.v.v.4.v.4.V.5.<.dXdXdX",
"dXdXdXdXQ ' Q J S J F J > ~ g.p.f.h.f.d.u.p.a.t.e.w.] [ c *  .s.g.9.0._ H Z B ( r.e.8.7.7.8.7.7...7.w.d s ] R A A H a A n dXdXdX",
"dXdXdXdX6X6X6X>X,X-X;X}.P ~ g.t.d.d.f.a.p.t.t.9.w.] U B c * _ u.e.7.6./ B N N B W 6.0.6.7.8.8.6.) X...r i } R A H D a D 9 dXdXdX",
"dXdXdXqX9X3X8X8X3X5X,X_.m ^ u.t.d.d.f.y.t.9.e...O.F 0 B v * _ u.7.0.` ( A n 4 n n g 6.6.7.6.7.6.0.....a i ] R A A H H D n dXdXdX",
"dXdXdX:X6X3X:X6X6X3X;X^.b ! u.q.p.p.p.p.u.9.$.@.F 0 [ C 5 $ ^ i.0.w.X.( B F H q G [ R ) ( 7.8.6.) / ^ i i ] R A D D G R D dXdXdX",
"dXdXdXdX(.~.Z.Z.4.1.:.5 # ^ B.B.p.9.p.9.9.^ K Z y C F n 5 = ^ i.8.w.X.( B Z n F } >.0 q W 6.7.6.) W W r A a A A A B y 0 9 dXdXdX",
"dXdXdXdX} { { ! ! ! L t ; ! N.u.e.e.p.t.9.) s 9 0 C U Y 5 % k w.X.9.X.W u q D F B $ + $ w 6.6.6.) x E L ).)._._.'.^.Z.5.;.dXdXdX",
"dXdXdX&.&.#.#.$.#.#.! t * ^ u.9.q.e.9.9.8.0.0.) D F { J 5 & L ..( X.X.z y n H B + * s W ) 6.) ) ) W k S ).-XXX_.'._.].|.^.dXdXdX",
"dXdXdX{ } ] Q Q Q ~ D 1 1 E e.7.q.q.8.8.8.X.6.0.k C 0 0 e $ E  .l 0.) k B q B 0 + w 6.6.6.6.) 6.) W k S (.%XXX]._.~._.].^.dXdXdX",
"dXdXdX#.&.] } _ ] } S A $ L 7.7.8.8.0.8.8.x ) 0.j y F t 5 $ z  .h ) ( l y F F 5 + w ) / ) 6.x ) ( x k S `.&X@X}.].].[.[.^.dXdXdX",
"dXdXdXdXD d D G D D A 2 o E w.7.8.0.0.0.0.0.) 0.E 0 Y 0 5 $ W  .k X.x k y F n 1 + w 6.) ) x ) ) ( z W r v.C.Z.Z.Z.n.4.2.-.dXdXdX",
"dXdXdXdX{ } &.] ] ] { 0 % E ..0.0.0.X.0.X.x x 0.R 0 0 B 5 $ (  .k ( k s y 0 0 1 + w / x ) ) / ) x l W - s ] { L G G G K C dXdXdX",
"dXdXdXdX&.} } } } } ! 9 # k ..) 0.) x 0.0.X.x X.h H B C < o ~  .k ( s k y 4 B 4 + i ) / / / ) ) x (  .- d D D a q A q q G dXdXdX",
"dXdXdXdX^ Q R Q ! { Q 1 . u  .( X.0.) x x x x x R B K A 6 $  . .k ( p s q B A 5 + w / / x / / x x  . .- r ! A A w n q A F dXdXdX",
"dXdXdXdX! Q G Q Q K t : O u _ x 0.x x x x x x x s A { 5 & $ _ ..p  .d p q G [ * + w j / / x l / l h k 2 S L ! L U G G J T dXdXdX",
"dXdXdX6X:XXX@X&X]._.m.| T s ( x x X.x x x x x l s u ,.6 O $ ^  .i  .d s n A [ & + q l j j l j j j p i u C.{. X.X'./.~.[./.dXdXdX",
"dXdXdX6X3X%X%X;X%X.X_.n.P r ( z x x l x l l l k ,.Q 1.6 e e r z i z d o.L L Y > V 6 p j j j j j h p f u V.`.@X_.~.Z.Z./.^.Q.dXdX",
"dXdXdX:XoX(.V.v.].+X].3.: r z l x x j x l j j p 0 1 2 # $ * 7 = i ( i u - 2 ; . n & $ w h g h h h i 8 u V.C. X/.,.[ Y 2.^.3.dXdX",
"dXdXdX;X(.J u S F _._.:.@ r k k x l j l j j g f 2 # $ 7 * <     r z i u $ ; $ # 0 # . = g g g h h p 8 u A.A. X1.F 9 0 B 5.Q.dXdX",
"dXdXdX:X1.= D Q N <./.| : r k h j j g j j g g g 0 + o . e < X   - z i u % # $ % 0 + X $ g p p g p f 8 u A.{. XU - 0 q 9 -.Q.dXdX",
"dXdXdX.X1.r d q ; :./.;.: r s p g g g j g j } Q 0 % * 0 U ; X   8 z p y 4 % q S 0 & % = g p p p p f 8 u S.`..X! * a 9 2 I Q.dXdX",
"dXdXdX).).J L t & A._.;.: 2 s p g g g j ~ ] F 0 9 C F O.Z X X X - l f 8 N V ' [ + O c B d p p p p w 8 u C.)..X4.t 9 4 5 :.3.dXdX",
"dXdXdX@XXX/.<.| n.XX{.;.: 2 d i g g h L F 2 9 9 1 4 n 1 .       - l f i 1 1 < # + 6 2 5 n 0 w p f w 8 u C.A.].~.n.1.<.!.^.3.dXdX",
"dXdXdXoX$X{.XX+X#X{.A.I @ 8 d f p p g - o 7 # $ * * * & 7   X ; f k w w 9 * . . + $ + . . . = f f w 8 u 2.A. X/.~././././.3.dXdX"
};
