/* XPM */
static char *d__1_1740046048[] = {
/* columns rows colors chars-per-pixel */
"64 64 245 2 ",
"   c #030302",
".  c #070807",
"X  c #080807",
"o  c #070708",
"O  c #0B0B0A",
"+  c #10100F",
"@  c #0F1013",
"#  c #131413",
"$  c #151716",
"%  c #1A1A16",
"&  c #1C1C1B",
"*  c #22221E",
"=  c #27291F",
"-  c #090D25",
";  c #191B27",
":  c #171B34",
">  c #1E2024",
",  c #1D243C",
"<  c #232423",
"1  c #292721",
"2  c #272821",
"3  c #2A2B24",
"4  c #24262B",
"5  c #26292C",
"6  c #2B2C2B",
"7  c #2F3127",
"8  c #2F312B",
"9  c #313227",
"0  c #33342C",
"q  c #37392D",
"w  c #3B3B2E",
"e  c #242837",
"r  c #2B2E33",
"t  c #252B3B",
"y  c #2E3133",
"u  c #2D333C",
"i  c #323433",
"p  c #363834",
"a  c #3B3C33",
"s  c #32353A",
"d  c #36393A",
"f  c #3C3D3B",
"g  c #403F2F",
"h  c #403F30",
"j  c #3F4035",
"k  c #3E403C",
"l  c #444335",
"z  c #484637",
"x  c #43443B",
"c  c #48473A",
"v  c #46493B",
"b  c #4A4B3D",
"n  c #504E3F",
"m  c #111C50",
"M  c #1B2546",
"N  c #1A2558",
"B  c #272D46",
"V  c #2D3342",
"C  c #2C324B",
"Z  c #28344D",
"A  c #343A44",
"S  c #393E44",
"D  c #313648",
"F  c #323A4B",
"G  c #232A57",
"H  c #293658",
"J  c #343955",
"K  c #181E79",
"L  c #1B2766",
"P  c #193165",
"I  c #1C2A77",
"U  c #1B3271",
"Y  c #242B66",
"T  c #283666",
"R  c #343D62",
"E  c #222D73",
"W  c #273678",
"Q  c #303F71",
"!  c #3A4146",
"~  c #3B424A",
"^  c #2C435F",
"/  c #384457",
"(  c #2A426F",
")  c #374562",
"_  c #324379",
"`  c #444542",
"'  c #4C4D43",
"]  c #464848",
"[  c #504F42",
"{  c #4E5142",
"}  c #4F504A",
"|  c #525344",
" . c #52524B",
".. c #58594A",
"X. c #4F585D",
"o. c #565652",
"O. c #575956",
"+. c #5D6053",
"@. c #4C546A",
"#. c #555B68",
"$. c #5C656E",
"%. c #696A66",
"&. c #636A76",
"*. c #6B737A",
"=. c #1B2B8C",
"-. c #1A368B",
";. c #1B2A9C",
":. c #192E9C",
">. c #1C369B",
",. c #232D89",
"<. c #213D87",
"1. c #222D93",
"2. c #233598",
"3. c #0C1BA9",
"4. c #141AA9",
"5. c #0D1DB6",
"6. c #1727A9",
"7. c #0E22B6",
"8. c #0D25BA",
"9. c #1326B7",
"0. c #1A38B1",
"q. c #314B84",
"w. c #2A4B9A",
"e. c #1C56AE",
"r. c #1C49B6",
"t. c #234CAB",
"y. c #2158A5",
"u. c #2855A9",
"i. c #535F8B",
"p. c #586388",
"a. c #586598",
"s. c #6B7687",
"d. c #6A7388",
"f. c #697498",
"g. c #5D6DA6",
"h. c #5F70AD",
"j. c #6D7AA9",
"k. c #6979B3",
"l. c #0C1EC6",
"z. c #111CC7",
"x. c #0C1ED8",
"c. c #0D27C9",
"v. c #0D24CD",
"b. c #1125C3",
"n. c #1228C9",
"m. c #0E30C8",
"M. c #1337CB",
"N. c #0D24D3",
"B. c #0E2BD4",
"V. c #0C23DB",
"C. c #0D2BDD",
"Z. c #102CD5",
"A. c #0E37D9",
"S. c #0F33DC",
"D. c #1134DB",
"F. c #113AD8",
"G. c #0A1FE7",
"H. c #0C24E3",
"J. c #0D2CE3",
"K. c #0C25E9",
"L. c #0C2CEB",
"P. c #0E33E4",
"I. c #0E3BE4",
"U. c #0E35EA",
"Y. c #0E3CEB",
"T. c #1035E6",
"R. c #113CE3",
"E. c #103EEA",
"W. c #0C37F0",
"Q. c #0E47DE",
"!. c #174ED1",
"~. c #1349DD",
"^. c #244FD2",
"/. c #1B66D8",
"(. c #246DC9",
"). c #0E45E3",
"_. c #0F4AE4",
"`. c #0E43EC",
"'. c #0E4AEA",
"]. c #1144E4",
"[. c #1C44E3",
"{. c #124BE5",
"}. c #1143E9",
"|. c #114AEB",
" X c #0E53EC",
".X c #0F59E9",
"XX c #1253E5",
"oX c #135CE5",
"OX c #1255EB",
"+X c #125CEB",
"@X c #0E4CF0",
"#X c #0E67EE",
"$X c #1462E6",
"%X c #166CE5",
"&X c #1263EC",
"*X c #136CEB",
"=X c #1573E6",
"-X c #1373EB",
";X c #137DEC",
":X c #187AE8",
">X c #1268F1",
",X c #0E74F1",
"<X c #1274F2",
"1X c #147CF1",
"2X c #5A75CD",
"3X c #5673D2",
"4X c #5D7AD9",
"5X c #667DC7",
"6X c #627DDA",
"7X c #77838F",
"8X c #7886A9",
"9X c #7C8CB9",
"0X c #1A97DB",
"qX c #1483EB",
"wX c #138CEC",
"eX c #1888E9",
"rX c #1392EC",
"tX c #1894E9",
"yX c #139BEC",
"uX c #1384F1",
"iX c #138AF1",
"pX c #178EF3",
"aX c #0F91F5",
"sX c #1493F1",
"dX c #1A93F3",
"fX c #139BF2",
"gX c #199CF3",
"hX c #14A0E7",
"jX c #13A3ED",
"kX c #13ABEE",
"lX c #12B5EF",
"zX c #12BAEE",
"xX c #15A7F2",
"cX c #1AABF3",
"vX c #0FB6F2",
"bX c #13B3F2",
"nX c #1CB7F6",
"mX c #13BAF3",
"MX c #20A9F4",
"NX c #788CC7",
"BX c #738ACC",
"VX c #15C4F3",
"CX c #11D0F2",
"ZX c #9197A3",
"AX c #DFE0DF",
/* pixels */
"    o # O o   o S $   X X X O o O & # X $ X X     O +     o   o o O               .             X o O o                 .   X X ",
"    o O o                       O ] i $ # o       X         o # O           o                 o o   O                         X ",
"O O           % % O       + 6 X . 5 6 + X O       o     O   X + # X + o                       O & X   .     O               X % ",
"  X       O o o O X       ZXAXf @ $ % @ o X     o X O $ 3 6 i T I s l j 9 & o     O . . o     O & X               @ O     O # + ",
"                X         *.ZX9 . . + O .   . . # = j b n ' H 9.m.N ] n ....b 7 % % O . O   .               X X O # O       o   ",
"X o                     + & + O . + + & O . $ q x c v l b b / 1.2.R { { ' | | | ..{ 8 # # O % O o           O   o             o ",
"X O       O # o X X * o O O X X .   . # * q j j l v c j p 5 > ! S 6 > y a ` | | | | ..| k 2 + . o     o   # O o   O       X O o ",
"  O o     o o o X   # X   % + # .   % q j j j j q 2 & m P , M U H e M -.N $ # 2 a b ..| ..+.v & # # o & O ] 6 # O O       O     ",
"    + @ X         X       O X @ + = j j j j 7 % - , t r.t.) ! T W ~ / u.u.J V U N $ 8 ' { | ..{ 0 O   o O # O o             O o ",
"    + O ] %       X   X O     @ 5 s j j 9 & $ P y.) d Q ^ f a f k p j k S d ) u.w.y : : 0 | { C W G O     o         O           ",
"        $ +       O O $ %   - ,.L , q > m U u ( ^ s 0 q w a h f k a p j w w f F ~ k q.t.- & f Y v.2.y O           o O           ",
"          O $ +   X o     X G v.:.t % M W ( k 8 0 9 i D E ,.6.0.6.6.6.1.W J S h j w / w./ & < ) 2.E ] 9 O           o o         ",
"o   O X # O + & < + o   X 3 B L W y M V u y i 9 V E 6.n.C.K.W.B.l.3.7.V.x.l.9.,.F p a f f q.T v A ] [  .3             o       o ",
"X   + O #     $ +       * a p r > H w.t 9 6 y E M.B.x.4.5.S.I.7.8.7.3.b.v.3.H.K.c.1.F a a J -.M + 0 b ' } %       # O O     +   ",
"> O @ X O       O     + w w 0 % , -.H 8 3 H 6.V.x.N.5.=.b.Z.D.9.4.C.Z.B.8.B.B.I.J.S.9.Y a j A ~ Z : a [ ..x O       o     o 6 O ",
"  X               X O = w 0 4 : u 5 3 8 G M.K.z.Z.v.l.l.b.b.b.b.9.m.F.).Y.E.7.M.I.8.7.N.=.f a k w.=.; l b | #       o #   o 3 + ",
"  $       $ +   . . + w q = m -.Z 5 3 Y V.b.5.c.8.v.P.Y.M.b.n.B.v._..X).U.I.8.A.'.M.P.N.z.1.d a J w.M * v { q o X           O # ",
"          $ X     + = w 9 & Z T 6 2 P Z.N.7.7.J.b._.@XI.8.B.T.C.B.B.`.+X-XQ.m.'.*XF.S.D.C.x.=.d p ! ~ : 0 b ' % .   o         . ",
"  X   X           + q w = = 7 3 3 , b.V.8.B.K.T.I.'.S.J.B.F.Y.).`.I.R.D.).S.}.OX$Xm.P.C.n.H.H.W a w _ 0.: c { p   o +           ",
"  +   X         . * j 9 e Z V 3 5 ;.v.B.V.U.).M.].gX,X#X*XOX{.OX~.A.}.}.1X-XOX).Y.U.P.5.7.I.K.z.C p J t., 0 n b % + O           ",
"    o *         # q q 3 > H t 2 N D.m.c.P.I.'.{.). X XqX,X+X'.+X-XR.|.'.`.&X{.D.}.J.U.c.B.`.S.V.;.d d ! i * v { 9 o             ",
"      O   #     % j 9 = 3 6 8 5 9.C.B.B.Z.m.). X,XY.#XwX&X-X&X*X;X$XgXsXyXgX{.F.R.I.Y.I.).).J._.~.R p f R : a { x O             ",
"  o     o O     = j 9 , P 8 2 N J.P.`.Y.P.A.C.;XjX;XiX XY.*X XOXuXpX-X,XrXsXoXM.A.A.P.B.J.c.b.U.|.;.a f _ B 6 v ' *     O       ",
"    X X O     O q w = N >.5 4 >.V.N.J.v.P.`.L.#X.X'.`.'.'.+X>X+XpX X>X&X+X`._.D.oXb.B.C.Y.I.V.K.E.M.F i R F * l a 6             ",
"  o +   o + o % 9 0 3 B T < , b.v.V.J.V.I.U. X#XuX*XP. XsX*X+X*X*XuXgXOX&X>XP.T.F.A.].&X+XC.H.x.m.XX( 0 d f 3 u G Z o         X ",
"          o X ; , 4 8 8 5 = M V.J.P.J.L.c.Q.fX#XmX#X#XaXiXuX>XuXdX1X<X@X1XcX:XD.M.+XwX$XI.J.I.N.N.V.=.0 A T f T n.=.O     o O   ",
"O             m z.I p A t = U S.L.V.C.U.P. X;XOX#X#XjXaXuX1XuX1X<X>XgXaX<X-XpX[.:XpX&XXX).E.D.m.@XY.6.r s I r V G B O     o O o ",
"o       O o   : K N < , e = -.S.B.V.'. X*XY.Y.'.;XkXwX,XiX<XsX>X>X1XuXnXpX+X*X+X*X-XoX$X*XA.I.&X1XiXr.i i V ; q l a O           ",
"        o o   % = 3 & e 5 < =.N.3.V.`.@XjX'.Y.-XyX;XqXaXfXbXfX&X@XdXpXgXuX>XdX>XOXQ.yXdX).J.A.*X#X*Xr.u q A y 0 v a X           ",
"              % q 9 9 6 5 = -.U.J.L.B.P.#X XoX:XjXwXjXaXxXxXsX1X>X<XgXMXOX>XgX*X_..XxXqXI.`.'.S.+X`.9.t s Q G 0 x q o         O ",
"    o X       $ q 0 s B t 2 -.U.L.J.7.S.`. X;XyXvXvXvXyXxXiXfX1X1X>XdXMXdX+X>XU.c.:XcXQ.I..X_.7.c.L.9.8 y T t 0 c 0 X           ",
"O o           O q 9 i r 3 2 I C.l.L.U.`.iX#XoXeXhX=XjXvXmXvXsXuX<XuXcXxX&X;XpX.XA.qXcX XI.+X).5.m.I.t.y p f 7 0 v 6 O           ",
"# o           o 9 9 q 3 2 = P F.N.H.E.*XrX'.).qXkXyXwXvXbXVXxX#X>XcXcXgX<XuXcX*X+X+XnX=XJ.E.Y.I.+XY.=.6 i F 8 a x *             ",
"O     o X       2 0 i B t 2 , !.L.H.U.OX.X X+XoXwXvXkXrXxXyXbXqXuXgXnXVXgX:XqX*X-XoXgXeXY.G.OXqX&X.XI 8 C H 6 x c #             ",
"                & 0 i V L 4 4 6.W.E.P.U.J..XlXwXjX;XzXvXkXkXkXkXpXsXVXbXqXtXeX+XdX-XXX*X+XT.XXrXlX0XZ 7 V D 8 x a O             ",
"        o       # q q s t 2 2 L T.P.P.H.P.{.wXjXCXjX*XvXCXjXjXkXbXsXiX-XxXcX=XA.eXeXeXXX}.}.V.'.'.0.r y C y p l 9               ",
"          O o   O 6 q i 5 4 1 , !.H.K.x.P..X.XwXwX=X#XqXkXyXrXyXjXmXwX*XgX,XI.A.F.%XeX:XB.R.H.K.C.L 7 B H y a l *               ",
"            o     & 0 w i G 4 < I U.E.|._._.).uXvXjXlXwX=XhXtXjXkXqXwXwX-X$XS.&XR.T.{.-X{.K.K. Xe.4 i C s 0 a l +           O   ",
"                  % 0 i f G e 1 e 0.W.J.).A./.;XlX=XzXVXyXrXtXzXVXzXmXzXvXyXQ.Q.|.}.C.}.A.V.U.~.P 6 8 i 0 p x 0 o . X       # # ",
"    o             X 6 0 f i < 5 < T ~.J.I._.=XwX%XqXhXCXzXhXhXVXjXrXzXkXvX*X[.{.{.oXXX=X).'.%X-.6 8 V ~ p q a %           + O o ",
"  O #               % 0 9 j A B 5 5 W }.U.OX>X$X:XCXzXlXjXeXeXeXoXoX%XqXyX-X}.XX}.XXJ.oX+X}.y.t 0 8 5 i Y N r O O         o     ",
"o o o             X . 5 G G 5 B 4 3 5 <.|.U.L.+X%XyX=XXX~.:X:XtX.XoX_.wX:X:X%XoX].E.V.R.}.9.B 7 i i < 6 K 4.; % %   X       O   ",
"X # o o         o     - 9.=.< 6 5 e 1 e <.F.U.}.D.*XtX-X~.XX$X{.~.$X=XyX%XoXeXeXT.}.[.%Xu.B 6 r C s f 0 5 :   O                 ",
"O O         o o       o ; 5 3 h d t e 3 6 T /.|.U.E.}.[.F.R.F.T.oX:X=X%X%X~.:X%X].|.F.2.t 8 8 u D h f h 3 X       @             ",
"& #                   X + < 9 0 h A e 6 6 6 B 2.^.&XE.L.L.R.{.D.I.oXoXoX+XE.:XE.].e.G r y u C s p d h 8 O         O O           ",
"O   o O               + + o 1 0 i h h t V r 6 i H u.^.[.|.-X|.}. XY.`.|.`.*XeXr.W s 8 q i H D S p h 6 +           o # o         ",
"& O   o   O             o o + > i i h ~ B 4 r 8 6 y D Q u.u.^.(./.^.(.(.t.<.J s 0 i s B y A h h a * o           o     o         ",
"O O o i # o               # o - : 8 0 S h i B C r 8 6 7 i d D J D D D V y y i i i y D D h ` d p u O             O O             ",
"O     & %         O       # o - ; 1 i 0 p h ' D 6 r r r t u i y u i s s s V y J J s ` ~ f a f D H : o X         o .       o     ",
"O     o X         & o       + & O.O.#.#.@.$.p.p.i.i.a.a.g.g.g.h.h.h.g.h.g.f.a.a.p.d.p.&.$.&.*.d.#./ , O               o   X     ",
"                  O     O # x #.d.f.f.j.k.k.5X5X5X6X6X6X6X4X6X4X6X6X6X6X6X6X5XBXNXNXZX9X8X8Xj.ZX8X*.@.-   O       X o   o o     ",
"6 O   O o     O   X   o > c  .d.f.j.j.j.k.5X5X5X2X3X3X3X3X3X3X3X3X3X3X6X6X5X6XBXNXNXNXNXNX9XNXZX9X8X&.~ o       X       O       ",
"6 O   o             X & x O.x d d d p p d s u V u t B V s V V u B s V V V D A A S S S ~ ~ ~ ` ~ ` O.7X$.<     o X             O ",
"              o X % * q o.O.w 6 3 3 6 3 3 3 3 1 1 1 1 1 1 1 1 3 1 1 3 3 6 6 1 1 6 9 9 0 0 0 0 0 q ` 7Xs.X.+                 O o ",
"X       o   o # O + 3 ' %.%... ...[ } ' ' ' } ] ' ] ] ] ' ` ` ] |  . .}  .} } ] ' } [  . . ...o. .+.s.7X*.k         .       o o ",
"    O X           $ f x h f x x x ! h x x f h f k h k k h S p h h ! ` h h k k h k ` h ` ' ' ` c v ` ` ` X.&.&       X o       o ",
"#   O X           8 c 0 1 3 3 3 1 3 1 3 3 1 1 1 1 3 3 1 1 3 3 3 6 1 3 3 3 3 9 3 6 9 9 9 0 0 8 0 q 0 0 9  .7XX.X     o + o     o ",
"O o     o O     & ' ..c z z c h l l c l l l l l l h x l l l l l l x z z z z z z c x ' [ n [ [ [ n n | | +.s.s.u                 ",
"+ o       o   O h h h h h h h h w g w w w w g g h h h h h h h l h l l h h h h h l l l l z x l z z l z c x x $.#.O               ",
"o   O       X 6 O. . ...[  . . .}  . .} | } } }  . . .o.o.o.o.o.o. .o.o.o. .o.o.o.} }  . . . . . . .' | ] } $.d.u         O O   ",
"# < O.      O % & > * * < p 8 < < i < > < < > * r 6 4 5 < r 6 4 4 < 4 < * < < < 4 < ; & ; & > & * & < 5 5 i 6 4 #         o o   ",
"o 3 ] @           X       +       o X               X     X @     @           o #                       O #                     ",
"O X   O           O +         +     O       X O     X       o O X & O         O                               o                 ",
"O X X O X X         + +       X   X o   O #       X   X         o                                       X     o                 "
};
