/* XPM */
static char *e1739801801[] = {
/* columns rows colors chars-per-pixel */
"64 64 233 2 ",
"   c #010001",
".  c #0A0403",
"X  c #070805",
"o  c #0C0A06",
"O  c #04040A",
"+  c #0A070B",
"@  c #05090B",
"#  c #0C0B0B",
"$  c #120504",
"%  c #120906",
"&  c #120D0B",
"*  c #160B0A",
"=  c #15120E",
"-  c #1A120E",
";  c #0E0D11",
":  c #070711",
">  c #120E11",
",  c #0E1010",
"<  c #151312",
"1  c #1B1513",
"2  c #1D1A15",
"3  c #151519",
"4  c #1A151A",
"5  c #1C1A1A",
"6  c #131814",
"7  c #221B16",
"8  c #231C1B",
"9  c #291D1B",
"0  c #221616",
"q  c #24170F",
"w  c #1D221C",
"e  c #25221E",
"r  c #2A221D",
"t  c #31241E",
"y  c #1D1C20",
"u  c #251C20",
"i  c #242323",
"p  c #2B2523",
"a  c #2D2A26",
"s  c #2B262A",
"d  c #2D2B2A",
"f  c #322524",
"g  c #322A26",
"h  c #332C2A",
"j  c #392E2B",
"k  c #352927",
"l  c #35312D",
"z  c #3B322D",
"x  c #39392F",
"c  c #353432",
"v  c #3C3433",
"b  c #3D3934",
"n  c #3D3A39",
"m  c #39363A",
"M  c #43342E",
"N  c #423533",
"B  c #443B35",
"V  c #443C3B",
"C  c #4A3E3C",
"Z  c #4A3D36",
"A  c #45423E",
"S  c #4A423D",
"D  c #494238",
"F  c #53453D",
"G  c #50463B",
"H  c #433E40",
"J  c #4C4542",
"K  c #4C4944",
"L  c #4E4A4A",
"P  c #474544",
"I  c #524643",
"U  c #534B44",
"Y  c #594C44",
"T  c #544D4A",
"R  c #5A4F4A",
"E  c #5E5346",
"W  c #55524C",
"Q  c #5B534D",
"!  c #5A5649",
"~  c #534A50",
"^  c #5C5552",
"/  c #5E5A53",
"(  c #5D5958",
")  c #555353",
"_  c #62554D",
"`  c #625652",
"'  c #645C55",
"]  c #6B5E56",
"[  c #655D5A",
"{  c #695E5A",
"}  c #6A6156",
"|  c #65615C",
" . c #6B625C",
".. c #666256",
"X. c #71655D",
"o. c #72695A",
"O. c #6C6562",
"+. c #6C6A65",
"@. c #676163",
"#. c #726562",
"$. c #736B64",
"%. c #796C64",
"&. c #756D6A",
"*. c #7A6F6B",
"=. c #786662",
"-. c #7C7165",
";. c #7B726C",
":. c #77746A",
">. c #7C7571",
",. c #7E7975",
"<. c #7D7B78",
"1. c #726670",
"2. c #806E68",
"3. c #82756C",
"4. c #83766D",
"5. c #827572",
"6. c #847B74",
"7. c #8B7B74",
"8. c #857C79",
"9. c #897F7A",
"0. c #8B8175",
"q. c #8C837B",
"w. c #88837A",
"e. c #94867C",
"r. c #958579",
"t. c #8C8582",
"y. c #8E8B87",
"u. c #928682",
"i. c #948A83",
"p. c #9B8C84",
"a. c #958D89",
"s. c #9B8E8A",
"d. c #988780",
"f. c #9B9386",
"g. c #9C928B",
"h. c #99958B",
"j. c #9D9593",
"k. c #9F9A98",
"l. c #A3948C",
"z. c #A49A8C",
"x. c #AB9A8E",
"c. c #A19692",
"v. c #A59B93",
"b. c #AA9C93",
"n. c #A69E99",
"m. c #AA9D9A",
"M. c #ACA29B",
"N. c #A8A496",
"B. c #B3A49B",
"V. c #B3A99B",
"C. c #B9AA9B",
"Z. c #A7A28F",
"A. c #ACA3A1",
"S. c #B2A5A2",
"D. c #B4ABA3",
"F. c #BAACA3",
"G. c #B3ADAA",
"H. c #BBAFAA",
"J. c #BCB1A5",
"K. c #BDB3AB",
"L. c #BCB8A9",
"P. c #BCB5B0",
"I. c #C6B3A5",
"U. c #C2B4AB",
"Y. c #C4B9AC",
"T. c #CABAAD",
"R. c #C8B7AF",
"E. c #C4BBB3",
"W. c #CCBDB5",
"Q. c #C5BDB8",
"!. c #CCBDBA",
"~. c #C4B6B3",
"^. c #D0BEB0",
"/. c #CCC1B4",
"(. c #CCC3BB",
"). c #C4C2B6",
"_. c #D0C2B6",
"`. c #D3C5BC",
"'. c #D4CABD",
"]. c #DCCFBE",
"[. c #D6C9B7",
"{. c #DBCCB6",
"}. c #CDC5C1",
"|. c #D2C6C2",
" X c #D5CAC3",
".X c #DBCDC4",
"XX c #DACECA",
"oX c #D6CDC9",
"OX c #DDD4C5",
"+X c #DDD4CC",
"@X c #DAD4CB",
"#X c #DCD6D3",
"$X c #E1CEC4",
"%X c #E3D4C5",
"&X c #E3D4CC",
"*X c #E5DBCD",
"=X c #EADBCD",
"-X c #E6D6C9",
";X c #F1DECC",
":X c #E2D5D1",
">X c #E4DAD3",
",X c #EBDCD2",
"<X c #E4DBD9",
"1X c #EDDEDA",
"2X c #EAD7D0",
"3X c #F1DED4",
"4X c #F2DEDD",
"5X c #EDE0CF",
"6X c #ECE2D5",
"7X c #EDE3DA",
"8X c #EAE6DA",
"9X c #F3E3D5",
"0X c #F3E4DC",
"qX c #F5EADC",
"wX c #FBECDD",
"eX c #F6E5D7",
"rX c #FDF2DF",
"tX c #F1E1C8",
"yX c #EDE5E1",
"uX c #F5E6E2",
"iX c #F5EAE2",
"pX c #FCEDE4",
"aX c #FDEFE8",
"sX c #F9E6E5",
"dX c #F7F1E4",
"fX c #FEF2E5",
"gX c #FFF9E6",
"hX c #FEF4EB",
"jX c #FFFBED",
"kX c #F7F3EA",
"lX c #FFF5F1",
"zX c #FFFCF3",
"xX c #FFFFFC",
/* pixels */
"{ b 2 @ @ @     Y.).     .gXh   2 E 1         O & @ .   9.xXa.X + # v.jX%.    < < O         9 ) 6   N lX~   X XXF.      X % 2 n ",
"          . - Y gX'   O (.L.    :.jX;XI.$.a o       . u.xX6..       . p.jX6.        o h :.U.4XzX..  . |.H.    *.lXA * .         ",
"= h W 7.B. XeXjX'.3   D lXT   & *XJ.X.E.wXhX2Xc.R r M.xX{     <  .#     *.xXg.e Q v.<XlX8XK. .W.`.O   [ lXc   9 :XzXuX XN.6.W g ",
"6XpXwX3X(.z.$.U i @   Z.XX;   ! gXv     8 Q g.-XwXhXsXU     > P.xXV.o     [ hXgXaX.Xp.R u     K xXP   < 1Xp.  & f U 2.b.W.9XfXwX",
"6.Q g =             q hX,.    Y.[.  :         & N 5.V     e XXuX3.qX/.<     I ;.j O         X o :XA.    u.eX*             - j _ ",
"            & a W ;.!.sXu   c zX}   ; &.W 4             c yX<Xg   m 8X<Xr             5 ^ #.o   >.lXp   f aXT.%.R d #           ",
"& g J $.z./.3XfXfX6X`.*.    a.7X=   Z jXlX0XK.$.c o   D hX}.5   @   a OXiXN   # l ;.Q.uXzXsXj   0 sX8.  . >. X8XhXgX*XT.l.+.J f ",
"g.aXhXiX.XS.9._ z 1       1 dXt.    x.-XZ 5.W.aXhXoXM.hXK.&     4 .   < !.dXb.%XjXpXE.3.S 3Xi.    m.:X      X 6 l _ r.F.OXpXhX0X",
"P.*Xz 8 X                 ;.gXg   i iX>.      9 ^ j.#Xn.O     $.0X]     & M.%Xh.U e       d.7X2   V zX..                O 2 S >X",
"S.W.        # i A  .f.I.%XjXM.    >.iX5 O X         ;       t.zX_.hX,.    X #         X   i fX .  X L.jXOXU.a.O.C 9 #       O `.",
"g..X.   J V.OXgXjXpX%XF.r./ e X # *Xl.    +.s.J <         M.xX&.  6.zXi.        1 F h.'     F._.  @ i [ u.P.&XaXhXwX].M.n   2 OX",
"t.>X&   6.xXg.' B 8 o           T hXB   1 *XhXhX7XF.#.c K.zX!   #   } zXM.j ;.K.0XfXgX{.o   U zXV           # 9 V } z.xX+.  8 %X",
"9.6X1   +.1X$           # i v ` :X!.    | fXB z 0.(.wXzXuXA       O   W fXjXeX!.8.g F gXR   # .X`.! b 5 o           - qX/   i 3X",
"*.0X5   ` pXp   5 ^ q.U.%XwXhXaX>XU     '.F.        5 [ l     z B.u     n ( 8         `.F.    ' >XrXjXiXOXF.6./ 3   z dXK   p 0X",
"[ 0X9   Y fXl   ) zX1X~.s. .S p # O   B jXU   @ @           V ,XjX%Xj           + X   { hXj     # p K $.l.Y.9XjXD   C fXV   j 0X",
"K pXh   S gXx   S fXM                 M.@Xo   L `.t.D 1   Q zXE.z /.fXD   1 S d.!.V   = 6Xa.                F fXz   S fXv   V aX",
"V aXv   B hXB   V fXZ   # 1 h ^ 7.B..XxX*.  O K.wX2XlX,XJ.hXM.o   = K.hXU.9XhX%XfXb.    q.xX`.B.6.W h = #   U fXh   T fXg   K aX",
"' zXH   z fXU   v hXF   s oXsXhX6XT.l.$.4   l hX] . C 9. Xu..       . j.`.5.B . 3.hXe   9 =.x.{.tXfXpX_.7   ' aXk   [ wX7   W zX",
"hXE.4   e pX^   d fXU   s hXd.9 <           a.yX<       X     & ^ @             8 pX6.          < r x.eX0   X.sX9   &.6X1   e /.",
"w.@     B jX}   u iX{   5 pX'         > s ! iXy.  X 4       & D.xXx.X     @ 5 O   c.eXY i #     O   %.0X1   *.1X>   5.gXk     , ",
"       .gX(.p   & 9X&.  4 eX&.  # w.Y.=XfXhX&Xg   p +X(.9.I !.pX9.aXI.F d.|..X4   m <XhXaX>XU.2.+   7.,X&   8.2Xo   l XXuX^     ",
"  6 D.zXg.&     g gX9.  & ,X8.  , 8X%X3.Q l 1 #   >.hXF.2XlX1Xv   C 0XhX2XF.hX+.  @ 6 v _ 6.5X].X   p.$Xo   a.pX8     < N.zXl.= ",
"W 8XdXG       ' dXOXz     $Xa.  X OX9.          & &Xb.  < J p   X   g H >   K. X            v.!.    b.^.    V 1X7X~       { pX&X",
"xXP.e     o h.zXM.7     9 wXv.  X '.h.  @ m } q.W.jXB           <           Q zXE.t.{ h O   V.Y.    F.=X1     9 H.xXd.%     g W.",
"&.      B OXlX..      I 4X,XS     L.N.    Y.zXOXP.:.X   s s   { 6XR   g e   # 6.L.+XxXB.    ~.M.  O T 0X>XV       *.jX Xz     o ",
"  X : w.pX_.s     # a.xXH.7     - %XY.    C.Y.          W.jXOXfX%XpXOXjXG.        .  Xm.    oX|.o     p R.xXt..     g .XhX;.O   ",
"9   6 yX].$   @ v '.jX&.      Z 2XsXR     z.(.  X o 1 } hXs.D.6.. w.N.z.aXW 3 #   X @Xq.  . [ hXXXx       6.jXQ.c +   * 6X#X# . ",
"u.    +.aXv   O E.hXB     < ,.zXW.f     . Y.<X:   >.qXlX}.      X     & .XgX8X+.  , uXF..     j oXjX$.>     F xXG.    Z zX)   . ",
"aXn   # .XU.    W hXI     w.xX9.      v oXpX@.O   8.uXJ 2 O         O @ 4 Y sX*.  @ &.hX(.d O   . s.xX$.    ` zXP   o (.(.    V ",
"7XG.    T xXT     Q.XX$   B zX{     P fX|.c     . V.6X      7 | i.' =     * sXx.      N &XsXm     %.dXg   < >XS.    [ zXP   o K.",
"' zXJ     W. XX   n zXX.    n.7X1   h aX7.  O y ~.rX:.@   f ^.xXjXjXJ.i   $ 7.sXD.6 O   l.uXi   7 pXa.    :.jXh   # >XV.    Q jX",
"  Q. XX   S zX|     M.,X-   p hX9.    q.aXs   5 uXC.  X   l.zX7.l e.xXt.    . `.+X>   x hX$.    g.iX5   2 0Xa.    >.hXc   o ].~.",
"  I xX(     F.>X#   t hX<.    h.kX7   q 0Xj.     .zXn   # :X X    % =X(..   T xX!     D.OX&   h zX5.    a.wX1   6 iXl.    %.jXl ",
"  $.zXb   #  XU.    U hX)     ~.oX&   z aX*.    s.=X5   # |.1X9   g qXP.X   s 1Xw.    0.wXp   5 2XM.    +.fXN   X }.E..   K hX..",
"1 9Xa.    ;.jXv   o &XH.    W xXT     K.`.%   s jXY.o O   #.zX`.e.].zX'   O - .XkX5   = -XM.    ' zXA   . _.(..   P xX'     M.7X",
"l.wXw   5 9Xz.    $.lXv   . @XP.    L zX7.  @ .  .wXK.; @ & 5.9XgX5X%.@   = /.3X' O     e.xXb   o '.).    H xX/     F.&Xo   z pX",
"zX7.    8.aXr   1 6Xb.    $.xXD   : i H.hXt.@ O   r.=X$       5 v 4   O   * 3X%.    # s.hXA.5 O   E xX/     H.@X@   z hX&.    r.",
"XX1   p fX0.    t.fX9   O ! yX Xv       ,.hXA.O   i.zXb.^             X [ B.zX5.  # P.hX&.      A OX8XK     j zX,.    g.uX1   7 ",
"[     B.*X% O X M.zXw.+     d  XlX*.$ @   x.&X@   K n.&XsXe e 3   5 7 j aXXXn.n   < 0Xe.  X o 8.zXE.r     # l.zXg.O   q 0Xy.    ",
"O O 5 1X6Xv   . @ :.zX|.k     o u.zXu.O   B.E.        8 0X6XhX(.G OXfX0X,X<         |.p.    m.hX6..     v +XlX .. O   G pX#X> O ",
"$   @ d P.zXw.      N .XjXX.X O   W.H.    Y.%XG p & X   t.G.#.OXxX[.X.G.<.  X < s U 6XM.    '.B.  @ & 3.zX(.h     X e.zXH.p @   ",
"_.v     . w.xXP.7     o g.zX:.    W.b.    p.6XkXhXQ.1   +     i h.4     o   8 `.gXwXqXt.    U.F.    u.xXq.X     g (.zX>.      b ",
"%XlX1.O     S >XpX/ @     %Xl.  X @Xe.  @ o 2 a X.zX .                      >.lX' a 2 + +   M.W.    S.!.      O.lX:Xj       6.hX",
"& a.xXA.2     2 M.xX[   # %Xe.  & =Xp.            U./.e ^ M.$.      >.N.U r +XM.            B.`.    l.`..   $.xXg.&     r K.zXq.",
"    K 7X7XJ     o 0X9.  - 0X;.  = %XgX&XP.e._ =   R zXgXdX*XzXw.$ s.zX&XfXaXjXD   3 [ r.I.&XjX/.X   e.%X%   s.2X    O W sX1XH   ",
"2     5 G.jXU   4 eXX.  8 sX$.  , c ..u.K.,XjXU   , y.+.p   &.jX-XjX{ . j *.t.#   ..xX&XF.e./ h @   ,.9X&   5.2X*   ' jXM.1     ",
"*XA     7 hX .  e pX_   u sX'             o  XL.  o           ..8XW           @   !.~.              o.9X1   $.eX4   6.qX*   X S ",
"(.iXj   k fXW   z sXU   s hX'.9.' z 5 #     @.zXa     # n 5     #     i n X     N xX^     # 8 b [ e.%XdX9   [ aXe   +.eX2   D fX",
"Z fXV   z hXS   b aXI   7 e.U.2XpXfXeX Xc   < 1Xx.R M.<XzX#Xg   O   c <XzX&Xv.I S.+X#   J @XiXhXaX<XU.5.4   ` aXf   ^ wXr   W rX",
"J pXc   D hXB   V sXk         & p K =.pXk.    d.zXiXXXi.E '.wXn   K hXW.R f.OXaXxX6.    G.yX+.K s ;         V aXl   K wXz   A wX",
"Y wXp   U fXv   ~ zX2.f >             >.dX8   p =.k .     1 W.pXr.gXI.&     o j $.u   f hX@.            = a 6.jXV   S fXB   n rX",
" .eX8   E rXg   J &XwXsX0X`.M.>.U 1   7 pX;.  @             o Z.xXf..   O         :   u.1X4   2 Y 7.V. X0XfXpX$Xz   N fXD   d eX",
"-.9X1   { uX2   O = g U 5.M. X7XzX9.    M.:X    # c *.R.;.    o T O     w.Y.#.l #   o 1Xi.    i.zX=X`.M.5.T a * +   r qXU   a 8X",
"0.5X<   &.0X9                 $ c.2X1   n hXe.s.2XlXiX_.zXf.        . N.zX(.dXhX&Xu.p.wXh   8 wXe.. .               g wX..  e 6X",
"r.OX#   3.zX=X/.z.;.T f &       a zX[   X Q.zXOXs.U e   | xXG.#   = P.zXW   i Q j.#XxXD.    :.dX5       & a U 3.b.(.tXjXO.  3 *X",
"N.'.X O u W 6.B.[.7XaXwX2XE.U     L.!.    c b             Y jXY.M |.sXV           X n d   X OXN.  O / T.=XwXwX;X[.M.4.W 2   <  X",
"D.W.              1 z ' 6.*XOX&   Q lXH           2 K e     v 6XjXOXp     h T <           L jXD   < *XOX8.! l 3               `.",
"Y.fXz.$.J 9 #             v zXU   # +Xm.  & z ;.U.6XzX1Xc     h v.i     J 0XzX6XK.&.l .   J./..   ..jXa             * f I $.b.wX",
"[ D.OXpXhXpX2XU.a.[ b 3 O . '.J.    :.dXZ.OXjXiX`.5.S W.hXG           ^ zXJ.D 6.'.dXjXXXb.rXo.    (.P.  @ 5 B } s.R.2XsXhXpXOXB.",
"    O 5 v { p.U.-XeXxXG.O    .jXl   e 6X*Xh.W 8       # G.xX[   .   $.xXn.O       8 ^ b.1X].2   v jX!   # Y.jXwX%XL.d.@.c 1 .   ",
".               * - *.lXB   2 eXd.  O p #         X O   X c.xX;.. q.zXq.    X O         < i O   v.*X#   U hX} 2 o               ",
"&XI.e.` z 1 .       . <Xc.    g.9X&         4 K a.>Xi.      t.zXOXzX&.    . l.+Xi.S -         7 dX0.    H.`.        . 7 N ] e.U.",
"p.U.%XuXpX1X`.M.[ .   ;.pXe   z gX}   z $.K.1XfX&XD.hXB.o     @.8X(     & K.pXB.&XpX,XF.#.j   3.hXe   g hX{   # #.V.[.6XpXwX%XJ.",
"    & g U ;.b.&XhXa   9 pX3.    F.6XU.wXfX_.7.B *   ` hXK.1     3 X O 8 Q.hXU   * Z q.`.sX3XI.9Xb.    t.0X1   b lX$Xv.&.A p o   "
};
