/* XPM */
static char *gogo_removebg_preview__1_1739958230[] = {
/* columns rows colors chars-per-pixel */
"64 64 250 2 ",
"   c #030302",
".  c #0B0504",
"X  c #070807",
"o  c #080807",
"O  c #0C030B",
"+  c #060808",
"@  c #0B0B0A",
"#  c #130604",
"$  c #130A05",
"%  c #1E0B07",
"&  c #130D0B",
"*  c #1A0C0C",
"=  c #0F100F",
"-  c #11110F",
";  c #1A120C",
":  c #0F0F10",
">  c #190817",
",  c #14041C",
"<  c #131313",
"1  c #1B1614",
"2  c #171816",
"3  c #191817",
"4  c #1B1B1A",
"5  c #230B07",
"6  c #360908",
"7  c #29180B",
"8  c #38140C",
"9  c #250C1C",
"0  c #350C16",
"q  c #231B1B",
"w  c #331917",
"e  c #37210A",
"r  c #23201D",
"t  c #2B241B",
"y  c #3A281A",
"u  c #1B0727",
"i  c #1C0438",
"p  c #1C1E39",
"a  c #260826",
"s  c #281629",
"d  c #290E36",
"f  c #350A3B",
"g  c #242423",
"h  c #262428",
"j  c #2B2B2B",
"k  c #352A26",
"l  c #3A362D",
"z  c #343433",
"x  c #3A353A",
"c  c #3C3D3C",
"v  c #540E0C",
"b  c #57140E",
"n  c #4D0D11",
"m  c #481817",
"M  c #661816",
"N  c #741414",
"B  c #4B281A",
"V  c #522713",
"C  c #712A18",
"Z  c #420A26",
"A  c #4A0B3B",
"S  c #530D35",
"D  c #57193C",
"F  c #750F2A",
"G  c #6B1328",
"H  c #7B1327",
"J  c #661839",
"K  c #433325",
"L  c #51302D",
"P  c #732E31",
"I  c #554538",
"U  c #6B4C35",
"Y  c #714B32",
"T  c #1B0344",
"R  c #1B024B",
"E  c #170152",
"W  c #190252",
"Q  c #180558",
"!  c #1A105E",
"~  c #26044C",
"^  c #390744",
"/  c #2F164F",
"(  c #39184A",
")  c #240A52",
"_  c #2B1758",
"`  c #30274C",
"'  c #3E3A42",
"]  c #3B285A",
"[  c #141A70",
"{  c #1C236C",
"}  c #152274",
"|  c #3C2864",
" . c #313469",
".. c #262976",
"X. c #450C42",
"o. c #441448",
"O. c #591A43",
"+. c #4C314B",
"@. c #492654",
"#. c #583957",
"$. c #6B334B",
"%. c #453565",
"&. c #533C65",
"*. c #324253",
"=. c #1C4567",
"-. c #374178",
";. c #474546",
":. c #494949",
">. c #494858",
",. c #514A55",
"<. c #555858",
"1. c #6F4B54",
"2. c #52486F",
"3. c #745A68",
"4. c #5D6468",
"5. c #746D6F",
"6. c #991C0D",
"7. c #8A1619",
"8. c #9A161B",
"9. c #A2161C",
"0. c #AA181A",
"q. c #B41A14",
"w. c #BB1A15",
"e. c #B2161A",
"r. c #B51B1A",
"t. c #BA1918",
"y. c #93261C",
"u. c #A5291B",
"i. c #B92617",
"p. c #A4381E",
"a. c #BA3E1F",
"s. c #871426",
"d. c #991523",
"f. c #811D34",
"g. c #A41A23",
"h. c #932E2B",
"j. c #89393A",
"k. c #A72723",
"l. c #B62C25",
"z. c #A93629",
"x. c #B2382D",
"c. c #C61C0E",
"v. c #DC1B0E",
"b. c #C21A15",
"n. c #CB1C14",
"m. c #C51C19",
"M. c #D31C12",
"N. c #D91D12",
"B. c #E21D0C",
"V. c #D6250E",
"C. c #DD220F",
"Z. c #DD350F",
"A. c #C72715",
"S. c #D82912",
"D. c #C9371A",
"F. c #DB3312",
"G. c #D7381A",
"H. c #E4230C",
"J. c #E62A0B",
"K. c #E92D0D",
"L. c #E6360C",
"P. c #E43C15",
"I. c #C73B26",
"U. c #D03528",
"Y. c #8A472A",
"T. c #AA4736",
"R. c #BA4B31",
"E. c #B9602E",
"W. c #B76237",
"Q. c #CC471A",
"!. c #D94517",
"~. c #C8541E",
"^. c #DD591B",
"/. c #ED4A0D",
"(. c #F34907",
"). c #EE580D",
"_. c #F45608",
"`. c #E34413",
"'. c #E74A14",
"]. c #ED5C13",
"[. c #E75718",
"{. c #F15C12",
"}. c #F4660C",
"|. c #F66D0C",
" X c #F96908",
".X c #FC7606",
"XX c #FA7708",
"oX c #EB6714",
"OX c #F56615",
"+X c #F37A16",
"@X c #C84826",
"#X c #DA4726",
"$X c #C9542A",
"%X c #D65729",
"&X c #CB5233",
"*X c #E64D21",
"=X c #E95726",
"-X c #DC6728",
";X c #DA6D36",
":X c #F66628",
">X c #E57628",
",X c #E67035",
"<X c #973C41",
"1X c #8B4F4A",
"2X c #A65946",
"3X c #906954",
"4X c #AB6E51",
"5X c #8B6A6B",
"6X c #AD7766",
"7X c #CE7047",
"8X c #D2714F",
"9X c #C87852",
"0X c #E88333",
"qX c #D38744",
"wX c #C98B5A",
"eX c #E78E4E",
"rX c #E38955",
"tX c #F9A85F",
"yX c #DA946A",
"uX c #E59962",
"iX c #E9A669",
"pX c #E7A871",
"aX c #EAB779",
"sX c #173486",
"dX c #103F9B",
"fX c #233680",
"gX c #1C459A",
"hX c #2E4281",
"jX c #2F508F",
"kX c #1A52AB",
"lX c #2150A3",
"zX c #2362AE",
"xX c #2C6DB7",
"cX c #425086",
"vX c #576886",
"bX c #486F9C",
"nX c #4C6EA0",
"mX c #1E77CC",
"MX c #7B8282",
"NX c #898989",
"BX c #919191",
"VX c #AB948A",
"CX c #AFB3B2",
"ZX c #D4B48D",
"AX c #EDBE81",
"SX c #FBCD89",
"DX c #F9D9A3",
"FX c #B0BDC1",
"GX c #D2D3D2",
"HX c #E8F2F3",
/* pixels */
"    o < o o   o +.=   X X o o + @ 4 < + < o ; e 7 a T u $ e o X   = X             o             o o <                       o o ",
"      @ +     +                 @ ,.z 3 3 s s s w 9 R R 9 e 7 < X           +                       @                         o ",
"@ o           4 4 =       r j o o j j < t +._ Q R i T W T w e + =   @                         @ r o   o     @               o 3 ",
"  o     + @ o o =         BXGXx < 3 4 @   3 :.%.W W W W E d s ,       @         + @ @ o       o 4 o   +           @ <     o < - ",
"                        + 5.CXg + @ : @ + o l 2.| E ) Q W W R T u $ q k L B * .   < @   o     +             o o @ < @       +   ",
"@ o X                   < 4 = @ o < < 4 < 4 ^ T ] | / _ W W W W R s ,.#.k w 7 $     +   < : 4 o +           o +               o ",
"@ @ X     = <   o o g + @ @   +     @ : 1 . . ' 2.%.+.o.o._ ) W W W W i > * $ .       @ @ o o o o     +   @ :     @       o @   ",
"  @         + o @   < +   2 @ 2 +     & @   = #.) / 3.1Xz.O.j.( W W E R i a * $       +         : < + 4 o :.j 2 @ @       o o   ",
"    @ < o         +       + o :     o g < o g s , y VXeX=X%X@XO.E W E R u * o       <           @ @   + @ < o               o + ",
"    < @ ;.<       o + + o   + o       @ : o 3 *   K ZXeXOX=Xx.^ E E R u 9 ; .   :   < +               +   o         @           ",
"      + 3 @ X X   o @ < 2     @     @   o @ @ +   y aXtX:X#XI.x.D i > 7 4 @ o j 4   @ o o     X                   + :           ",
"          @ < @   o +   +   @     o @ X @ o @   X o 3XiX@Xl.,X:X#X8   2 @ @ :.FXMX< < @ @ o   @         @ o                     ",
"    o + - @ < g g @               X       X @ < 2 < ; B m T.eX,X[.u.v 6 #   <.HXCX*.@ X   X     o o     +           X         X ",
"+ + : @ <     < -                     X       o   o     7 4XeX[.D.A.A.A.6.5 < <.c ;         X 2 @ @ o   3 <       - @ @     @   ",
"4 @ & + @       o               o               X X     w 9X-X!.%X[.'.~.k.H 5     X       @ o @       + 3 < o     X X     o j @ ",
"+ o               o o           X X @         @ X o   k 5.9X[.[.0X}.h./ Q ~ a .   @       X X       o o + < @         -   o h < ",
"  3       < @   . +   z :.o                   o   : ' vX3.oX).[.oX2XfX..@.O.^ O           @ o       : :     +   @     o     @ < ",
"          < X     : @ c :.o     @ o         < <   z bX2.-XoX[.'.&XhXhX<X#XU.P >       o             @ o         o             o ",
"  @   +           o       + + @       <     2 <   4.bX4X$X^.!.F.P { $.U.*XU.k.>               @ @ o     @           <           ",
"  <   +         +   o o +   : o       <     X   : 4.vX2X1.3.R.i.O.) 2XyX&X*X#X8               X o       : o @     < @           ",
"    o 4         < o +   2 @ 4 <       o         l 5.1X3X>.4.T.i.F ^ 6XSXrX,XG.b   = o             3   : 2 : <                   ",
"      @   <           X < 4 < @ +   @ 3         K 4XE.5X>.3.R.J.r.s.4XSXaXuX=XC   @ o             2   < < @ @                   ",
"          @             o o @ @ @   @ <         L ;X-X2X5X2XG.C.N.v.I.SXAXaX,Xp.o   +     o @ < o     @ : @ +           o       ",
"    o @ o       < o   +   @ o     < @ @ o   o + K &X'.S.A.S.V.v.B.v.m.9XpXSXuX@X8   @     <   @ o   + o & <                     ",
"  + <   o <     o <       : <         @ : o     B D.i.6.0.H s.d.e.e.e.r.6XDXrXU.C +           = o   3 @ o @ @     o           o ",
"          o o + + < @ o   < < o     o o o       % D %.....! ~ ~ ~ ^ n M ZXAX%X#XC +         @ X     < :           < o       @   ",
"o                     + @ @ @       @ @ o         s ..sXsX{ W W R T O g ZXuX:X*XB 2   @     @ = + o + o     4 <   +         <   ",
"        o                 : @   o o               h { @.J f.s.s.H s.6 q 5X5X&XI.5     X x c < @ + @ @   @ o @ o                 ",
"                        o @ +   o <   @ + o : : > ( ` k.G.Z.F.n.m.M.0.@.kX} ~ m .     h GXGXg   o       @ o +   < <             ",
"                        @ @   o   + @       o u _ 1.@.D.'.[.'.v.M.N.M.cXgX[ E ,       < NXNX<             o @   <             o ",
"    + o           o 2   @ o @ : +         o y ;.#.2.+.Q.].oX{.J.N.N.U.5X&.) i           o :                 o             o     ",
"o o   +             @ < < + @ < @         U 9X7X#.hX@.^.[.OXOXL.B.&XyXpX%Xz.a             o           o             o           ",
": o               : @ @ o   @           ; 4XR.<X-.lX$.[.[.|..X(.#XpXAX,X=XI.5 +             o                                   ",
"o               < g <     = 4           ; j.&X1.gXsXP oX^.XX.X X&X9XpX=X#Xy.@ :             < o     o +         o X             ",
"        X       + : o       <             $ I  .gX] G ^.oX+X.X.X*X7X8X#X@Xb @ :               @     < o     o                   ",
"                o                         4  .} -.h.S Q.XXoX X_.L.H.d.s.M 1 h 2               @     o o         @               ",
"          @ +       o     X         X     2 p sX3.k.G a.|.|.XX X(.H.d.9.v   : o o 3 @         +                                 ",
"                    +                   @ 3 4 ` 6XD.y.p.oX|..X.X XK.b.n.8.#   @ + z 2 2 : @                                 o   ",
"                  o o           o   @     o o r wXoX!.f.$X].|.XX|./.M.b.n.v   +       : @ < +                 X X           < 3 ",
"                  o +               X       @ g qXXXD.D 2X[.).XX{.L.v.q.N.8.%             + r o         o                 - =   ",
"  @ <                           o < X         1 qX/.A.G 1X&X}.XXXX/.B.r.M.b.b         @ o   o o         @       @ X           X ",
"o o +           X X               <           t ;XL.G.i.z.7X!.|.XX/.B.b.A.t.M       o < o   + : o             < 3   @       @   ",
"o < o             X                           l ;X`.'.A.u.$X>XQ.(.J.B.M.n.0.8.m o   4 < + : @ < o             @ X               ",
"@ @         o                                 y >X}.`.!.H $.eX0X#XH.H.C.V.e.9.N * o o < o o   < 2   o             @             ",
"3 <                   X @                     K -X/.!.A.G <XpX0X+X}._.`.C.t.r.9.b &     o o   @ o   @ @ X         @ -           ",
"o   + @               < <   <                 I R.G.G.q.w.k.6X,X}._.(.K.N.n.b.0.7.5       o @ < <   o o           + < o         ",
"4 o   o   o             o o o         @ 3     U ;X^.F.G.F.9.O.$X}._.H.v.N.C.m.r.8.6       < 2 : o                               ",
": @ o z : o               <             @   @ 6X,X!.`.`.n.e.d.x.D.]./.v.H.C.w.r.g.7.5     o :   @ +             @ <             ",
"+     g <         @       <                   Y -X).[.F.w.n.n.l.2Xy.i.S.`.V.i.i.9.e.7.#       @ +     X           o             ",
"        o         3 +                     o $ 1.~.[.'.C.M.m.N.l.2XW.p.D.L.c.!.i.0.m.q.6               o               X X X     ",
"        X         o     o       <   @   o   1 4X$X[.P.B.V.A.w.l.6XR.Q.D.c.G.`.c.w.b.q.v                   =       @ X     X     ",
"j @   @       @   o               @ @   - + r wX+X).B.J.S.9.q.q.4X%XQ.p.i.G.H.v.M.t.8.6       @                 @       @       ",
"j     o             o o o                 + Y 0X}.J.C.G.q.8.M.w.w W.].[.P.C.v.v.n.0.v #       @ 4 o             o             @ ",
"                o 3 < o =                   Y.%XL.S.G.b.q.n.c.q.* V '.P.n.b.q.m.e.G 0 +   o   o <                           @ X ",
"        X     < @ :     o   X           + + 5 C l.D.n.e.b.r.0.n   # 6.q.q.9.s.d.G S 0 O   @   : <                   X   o     o ",
"o   o       o         X @ o o             +   k P 8.8.9.7.N v       # 5 0 $.1.$.J ^ i O         @ :                 o +       o ",
"<   @ o             o   < 3 @ + X   + X   @ + k %.o.X.S Z &               :.xXzX%.^ W O           o X               X =       o ",
"@   X   X @             @ o o     @ @ <       ' lX} W R ,                 r nXmXjXo.W u                 &     @                 ",
"< o                     + @ @ @   X @       . >.kXsXQ R O     &         X X -.mXkX+.~ i @ o                                     ",
"o   @         X             +     X X   X   $ >.dX[ W i                     4 MX-.O.X.f <     4 <                         o @   ",
"< j ,.X     @             4 <     2     . o h | ( o.^ a   o o                 l cX .o.i               X o < @               o   ",
"+ j ;.@           o       <       X @   ; c jXsXQ ) ~ u   @ < o   <           *.xXcXO.~ O               @ <                     ",
"@ o X @           @ < o     + @     q V Y.-.} Q W W E u       @ o 3 @         =.zXT.k.A ,                 X   o                 ",
"o   X o o           @ @     o & X & P z.y.A ^ ^ ^ ^ ^ a . . . $ O $ . . . . . *.5.-Xa.F 9 . . # #       @                       "
};
