/* XPM */
static char *_d8ea097d5b5c8e73d40fc8a1b091f6e_removebg_preview__1_1740131523[] = {
/* columns rows colors chars-per-pixel */
"64 64 249 2 ",
"   c #020202",
".  c #0B0605",
"X  c #0C0907",
"o  c #090708",
"O  c #0B0B0B",
"+  c #150907",
"@  c #120D0C",
"#  c #1B0D0C",
"$  c #14110C",
"%  c #0E0F10",
"&  c #130B12",
"*  c #0F1010",
"=  c #131313",
"-  c #1C1413",
";  c #1E1B14",
":  c #181419",
">  c #1B1B1B",
",  c #220C0A",
"<  c #27130D",
"1  c #280D18",
"2  c #340E1B",
"3  c #211213",
"4  c #2B1411",
"5  c #291819",
"6  c #381817",
"7  c #28221D",
"8  c #3F331B",
"9  c #1D1A20",
"0  c #360E28",
"q  c #281524",
"w  c #36122B",
"e  c #3B1435",
"r  c #242423",
"t  c #2B2828",
"y  c #292A2A",
"u  c #392928",
"i  c #373329",
"p  c #362837",
"a  c #383737",
"s  c #451917",
"d  c #591B14",
"f  c #541C1C",
"g  c #5B1E1C",
"h  c #631D1B",
"j  c #4A230F",
"k  c #4A251B",
"l  c #5A2719",
"z  c #5B221C",
"x  c #6B241D",
"c  c #67281A",
"v  c #76251A",
"b  c #742A1A",
"n  c #7C2B1C",
"m  c #6A321B",
"M  c #79361E",
"N  c #471626",
"B  c #571B27",
"V  c #420E3B",
"C  c #461539",
"Z  c #581B35",
"A  c #651D24",
"S  c #721E33",
"D  c #4A2525",
"F  c #5B2829",
"G  c #4A3326",
"H  c #523329",
"J  c #552338",
"K  c #483936",
"L  c #583735",
"P  c #632423",
"I  c #6B2522",
"U  c #682628",
"Y  c #732727",
"T  c #7C2C22",
"R  c #693429",
"E  c #793729",
"W  c #662938",
"Q  c #782A39",
"!  c #693937",
"~  c #783B36",
"^  c #444035",
"/  c #574B39",
"(  c #744638",
")  c #715233",
"_  c #3D0A48",
"`  c #3D105B",
"'  c #3E2A43",
"]  c #440D45",
"[  c #4C1644",
"{  c #591849",
"}  c #510C5A",
"|  c #481B52",
" . c #561755",
".. c #671E44",
"X. c #721B57",
"o. c #4E2A4F",
"O. c #53214C",
"+. c #463746",
"@. c #6A2749",
"#. c #7A2845",
"$. c #673444",
"%. c #742F52",
"&. c #530B62",
"*. c #6F166D",
"=. c #572760",
"-. c #662B6A",
";. c #663868",
":. c #753379",
">. c #484848",
",. c #554F52",
"<. c #784644",
"1. c #704F51",
"2. c #6D624B",
"3. c #78685E",
"4. c #70526A",
"5. c #744879",
"6. c #6F6A6B",
"7. c #862A1D",
"8. c #982C1A",
"9. c #84331C",
"0. c #88351C",
"q. c #96391D",
"w. c #B03D18",
"e. c #882A26",
"r. c #962C29",
"t. c #893627",
"y. c #963B25",
"u. c #883733",
"i. c #933435",
"p. c #AB3A30",
"a. c #B3461D",
"s. c #8B4429",
"d. c #994828",
"f. c #8A4B3B",
"g. c #944133",
"h. c #9A583C",
"j. c #A84B2B",
"k. c #B54827",
"l. c #A75229",
"z. c #B95024",
"x. c #A64A34",
"c. c #A75538",
"v. c #B35A39",
"b. c #8D673C",
"n. c #AA6936",
"m. c #BA6239",
"M. c #C5491E",
"N. c #C7502F",
"B. c #D55A2A",
"V. c #C8553C",
"C. c #E15A22",
"Z. c #D66835",
"A. c #CD7039",
"S. c #E17134",
"D. c #853647",
"F. c #983C47",
"G. c #872E57",
"H. c #8C2A75",
"J. c #932A78",
"K. c #894645",
"L. c #8B5A48",
"P. c #945050",
"I. c #A65444",
"U. c #A7575A",
"Y. c #926B4A",
"T. c #857455",
"R. c #9E7554",
"E. c #A46846",
"W. c #B86A42",
"Q. c #A9774D",
"!. c #B66C55",
"~. c #AC7055",
"^. c #B67652",
"/. c #854762",
"(. c #935360",
"). c #8A5777",
"_. c #AE5E7A",
"`. c #8C726B",
"'. c #987877",
"]. c #B37C6B",
"[. c #B17273",
"{. c #D75F54",
"}. c #C36747",
"|. c #C7704E",
" X c #D67D44",
".X c #D57C53",
"XX c #C36C70",
"oX c #C48B3B",
"OX c #AD8E55",
"+X c #B88454",
"@X c #B0906B",
"#X c #D3884D",
"$X c #C68757",
"%X c #D99856",
"&X c #ED8C50",
"*X c #E19655",
"=X c #D39773",
"-X c #E19774",
";X c #D8AC72",
":X c #E5A871",
">X c #EAC379",
",X c #540C8A",
"<X c #772E8A",
"1X c #7922B3",
"2X c #8C2E8C",
"3X c #9B2A9E",
"4X c #AD3492",
"5X c #8D18AD",
"6X c #982AA4",
"7X c #8F4B8F",
"8X c #AD4891",
"9X c #977391",
"0X c #A57783",
"qX c #B4699B",
"wX c #B34DA9",
"eX c #BA4BB7",
"rX c #B566BC",
"tX c #C9679F",
"yX c #C851B1",
"uX c #AB2ED1",
"iX c #C43FD5",
"pX c #CD48CB",
"aX c #C95BCD",
"sX c #C171C5",
"dX c #D875D9",
"fX c #E571CB",
"gX c #D657E1",
"hX c #7F8D8A",
"jX c #8C9493",
"kX c #B08795",
"lX c #B2AA92",
"zX c #B487A2",
"xX c #B9B9B6",
"cX c #CD8F87",
"vX c #D7AC8D",
"bX c #E8B68C",
"nX c #CE88B1",
"mX c #D5B6A3",
"MX c #E6B1B9",
"NX c #D6C59C",
"BX c #EFD592",
"VX c #F2E09E",
"CX c #D4CDB0",
"ZX c #E4D3B1",
"AX c #D68FC7",
"SX c #E58FE3",
"DX c #ECA4EA",
"FX c #F3BBF0",
"GX c #F6D8F4",
/* pixels */
"        O O         *   O *     = = O             O   o %     O O % O o O     o   O O =                           o = o     o   ",
":   o O   O r =   O > o   o o * = O O O o O   *   o   o %   O % o % o   o     o                         *         O o   *       ",
"  * o     O * =     O O     = * O   O = > o O O o * O         % O       o             o   o O         O %     o =   o   O     o ",
"O o   o = $ * = : O O o   * = o = o O   * * O   O = o o           o :       O     o o   O   o o o   = O o     o         O o   = ",
">         o O =   i >.  = % o O * = $ o   o     o     O *   o       =       o       * =     o % o 3 ( O       o       o o       ",
"o         O O     * >   o   o   * a = = o     o o     o * > -.7X7X4.:                 O           R L.o   .           o         ",
"    o o o         > O     O > O * a > * o         o     r 5.1XuXiXgXzX3           = o   o   o   3 E./     O o     O > o     = o ",
"        o     o   * O     y xX,.* > =         O o o   * 6.1.| ,X1X5XAX6.O o       = =           D ^.G   O = o     : O           ",
"= =                       r 6.a   O * O       O O O   : jX<.! ` ,X,XtXlX: . O . O             = ( ^.;                           ",
"O O   o O       O     *   >     o % = = o     o     o : 9X( R $.&.| [.xXO   % % $ O         O - h.Q.$   o O               o o   ",
"O       O     O O O   = O * = *     o &     O         p R.! E h.Y.I.%XNXy         o = o = 9 a u h.Q.O   O               =     o ",
"          * O o     o         *     : 9 9 :       O   p K.J W )./.U.cXvXK O         *   o * * H I.R.o     O             =     o ",
"    O     O r r     o o * o   o       ,.+.=     o O o : p o.$.-.<XnXCX4.& O                 o L h.R.=                   o   o   ",
"o   * o     o o O     o * O   o   O w 7Xo.q & o     o = o ' 4.| ;.zXCX,.= O O     O       o   L g.R.O             o o O   o O   ",
"    *       O * > > = o             -.uX2X;.y & : ' ,.r = +.o.e o.[.mXxX,.7X7X;.=   o     O   L x.OX$     o   O O = =       O   ",
"  O $ o o * =     :                 ).5X2Xy O y 7XrXqX'.`.;.` e e ! E..XU.wXiXiX9X: O o o : o ! g.^.7   o * O =     O           ",
"  O O : O   o       o           o * 7X<X*.  : 7X8X7X4.[.kX0X/.K.c.^.~.E.Z D.P.J.nX,.    O : : L g.$Xi   * r                     ",
"  O o   *     o o   o o > >       5 <X2X-.  y ).O.:.zXtXXXXX_.XX#X:XBX>XP.C Y g.-X`.  O O   O H t.m./   o >   o     o           ",
"O       o     : O   O O >.a       p :.*.H.= a 7XO.4.(.G.8XyXeX4XU.E.Q.$Xh.w 0 Z !.3.  O O     D t.m.Y.    o o O   o O         O ",
"O       o           o o     o o   +.;.{ X.+.)._.Q O.%.X.wXSXDXdXJ.Q P Y P 6 B v.;X=Xi     o   5 E d.+X7     O           o =   o ",
"=       o o o     o o   o   * O   +.=.Z @.5./.Q B N @.H.aXFXGXDX6XG.i.v.y.~ Y r.$XBXT.  o $ = o c t.A.2.      O           o     ",
"o O       * O o   o o     > > =   p =.C Z Z Z A t.h.u.H.eXFXFXdX3XD.i. XS.L.h 7.s.;X@Xo = * >   6 b d.+X;     *         o o     ",
"O       o     =         o O O o o : =.Z Z N Q i.L.L Q @.H.wXeX2XD.Z Y m.#XG + r.8.}.@XK = o o   + v 0.|.2.                O o   ",
"r :     o O O     O O       O     @ p Z F.f.J 6 @ % W @.@...X.Q Y A S V.) @   6 e.A %.=X3.:       d n j.$X7             O     * ",
"*         o   = o   = O   o > o     & C D.G         - ! %.[ ] J u.r.m.b.$       6 Z Q |.vXa o     6 0.y. XT.o     o * o         ",
"    o               O o o O *       $ q 1             +.<.V _ C g.k.#X^ O o     6 r.e.x.-X3.o O   @ v q.j.%X7   o o o O o       ",
"    = o       o           o *   O                 O   L ! e _ [ f.A.%X/     > y - r.r.u.|.`.@ O     6 k.k. XT.  o     o o       ",
"  o O o                   O O   O O O O   *       o a (.~ C _ F c.|.*XvXr   jXxXq h p.r.!.'.    = O . q.j.N.@X7 o > O         * ",
"  o * o               O   O O O   O       = o o   o 4.(.R R H s.j.p.{.cXa   >.6.o . u.F.|.'.=   %     R k.N.%X/   y > o         ",
"          o           = * *   $                   O.8X%.z m M M E S 4XfX'.O         # F._.0XO     O   k k.N.&XT.    *       O   ",
"    O : O           o O O   o O             =   5 qXeX .D c m c s  .aXdXMX2.    O   & H.yXkXO         8 k.k.A.3.  o =       o   ",
"      =     O       > :     > o       o   o   O 1.sX7XC 0 k l s 2 [ rXMX-XNX/   O   7XpXyXkX=   o     G Z.S.S.Y.  O o           ",
"  o                 o o     O             o   - $./.@.N 1 6 d 6 1 N H.[..XbX@XO o > AXDXyXkX- o       H V.Z.S.Y.  o     O O     ",
"              o   O                           # ~ ~ ( c s 2 d s 1 B W P.}.:XNX:   o 4.sXtX(.o   O     ( V.z.S.E.  o   o o       ",
"                      o               o = o O 7 ~ t.t.h v 7.0.x F g m s.m.%XZX^       q 4 @         - m.Z.M.A.)     o o =       ",
"                      o         o o O   o =   u E E 7.h 8.B.z.v 7.v c M l.W.VXT.                  O ( v.z.a.S.8     o o         ",
"        o O                               o   D R M x d w.C.d.m v 7.z m d.A.:XCX3.O     O       o / |.A.q.w.a.$ O   o o         ",
"  o     % o                     O >         O F P I h h a.M.j 4 v 7.h z ~ l.%XVXbX`.K $ O = 5 K K.!.j.q.a.N.j       O           ",
"O o     O           o                       O [ C h g h 7.a.<   s v c B } %.A.>X#X.X;X].'.E.].!.I.s.y.0.a.0..               o   ",
"o O   o O       o                           $ [ Z f f h 7.q..     4 c B &.} g.%Xl.y.j.x.c.x.d.t.0.b 0.q.b + o                   ",
"O o o = *               O o                   1 N N f x 8.c   o     s P ] V U m.d.n n b b b b m b 9.9.b +               O       ",
"=   o =   o             = o O         O o o . F R s x e.T 3 O       + P s N E.$Xy.n b b b b b n n 9.j .         O = O   o       ",
"      * o * > O           o O         o   o $ E x s s.j . o           , 6 c d.-Xh.n 9.n n n b c k +             o =             ",
"    O >   * >       O o     %               # c l F K.t   o   o     = = # l I }.@X5 , , 4 + .   O             o o o             ",
"o     o     o       O o         o o   o o   - U f F v.n.5 o         * O - D U K.=X4.O             o   o o                       ",
"O o   O     o     O o           o O o o o   +.H.{ Y B.#X@X;         o   4 A @.J.4XyX1..           o   O     o       O           ",
"      r o   O                     O     .   q <XZ e.B.Z.+X8     o       k #.*.sXDXyXvX,.        o         o O                   ",
"                . o = : O o                 +  .Z 7.k.y.~.G     O O =   f Y *.aXdX4XbXlX                  O o                   ",
"=     o     o   o O o     o o           O   . [ N g e.7.j.6     O O O O s A ..2X5XJ.%X;X$                       o               ",
"o     O   =               : O o   O     o   @ V N g q.p.T .     O   o   , h B { *.X.A.oX$           * o         o   * o       o ",
"      O       o           O o     O =       . V N f x t.R         O O   . s g N } } v.A.;     O     o               O o   O     ",
"      O o                 o O O   O         & V N f T v #       O     o @ . f f ] } g.l.o                         o * O = o o o ",
"o     * O =     o           O   o O   o     q [ B A x 6               o     < f w } X.j.O               o o         o O * o   O ",
"      O ^ a     o         O >     O         0 { Q e.x -               *       6 N _ X.i.< $ * .                 O         O O   ",
"= =   o * * O       O O       o   O       6 D F Q r.s   O = :       O o       4 N _ &.P./                             o o   o   ",
"o O o O   % O O       O O     o   o   % D ! L.F T x.( +                       , f 0 N h.n.O   O                               o ",
"  o o     > >             o           5 D ( f.F c T c 5                   o   @ s z s.#XOX.           o           o = o       = ",
"    = o                     O         N F L s 4 @ .     o                       s m j.S.>X2.      o O         =   9 jXa * o     ",
"O * =                       o     O o O @ 3 o o :     O = = O                   4 l z u.%XOX      O o O           > hXa         ",
"O : r       O :                   = o               O     o O           y a   o o 3 F R l.E.*                   O * O O     O   ",
"    o o                     o   o             o   O o       O           $ O o     o Z F x ~ u                                 o ",
"  o o o                     O               o                   o   o o o           1 1 + 4 5           o o               o O O ",
"      O                     o :   o :             O           O                             o         r >                 o     ",
"                              =   * * O                         o o                           o       >.>             > o       "
};
